/* XPM */
static char *result[] = {
/* columns rows colors chars-per-pixel */
"64 64 8 1 ",
"  c #808080",
". c #B5B5C4",
"X c #CACAD5",
"o c #DADAE5",
"O c #DFDFEA",
"+ c #E6E6EF",
"@ c #E8E8F0",
"# c #F1F1F1",
/* pixels */
"################################################################",
"################################################################",
"########################XXXXXXXXXXXXXXXX########################",
"########################XXXXXXXXXXXXXXXX########################",
"########################XXXXXXXXXXXXXXXX########################",
"########################XXXXXXXXXXXXXXXX########################",
"################XXXXXXXX@@@@########@@@@XXXXXXXX################",
"################XXXXXXXX@@@@########@@@@XXXXXXXX################",
"################XXXXXXXX@@@@########@@@@XXXXXXXX################",
"################XXXXXXXX@@@@########@@@@XXXXXXXX################",
"############XXXX@@@@########################@@@@XXXX############",
"############XXXX@@@@########################@@@@XXXX############",
"############XXXX@@@@########################@@@@XXXX############",
"############XXXX@@@@########################@@@@XXXX############",
"########XXXXOOOO################################OOOOXXXX########",
"########XXXXOOOO################################OOOOXXXX########",
"########XXXXOOOO################################OOOOXXXX########",
"########XXXXOOOO################################OOOOXXXX########",
"########XXXX@@@@################################@@@@XXXX########",
"########XXXX@@@@################################@@@@XXXX########",
"########XXXX@@@@################################@@@@XXXX########",
"########XXXX@@@@################################@@@@XXXX########",
"####XXXXOOOO@@@@@@@@########################@@@@@@@@OOOOXXXX####",
"####XXXXOOOO@@@@@@@@########################@@@@@@@@OOOOXXXX####",
"####XXXXOOOO@@@@@@@@########################@@@@@@@@OOOOXXXX####",
"####XXXXOOOO@@@@@@@@########################@@@@@@@@OOOOXXXX####",
"####XXXXOOOO@@@@@@@@@@@@@@@@########@@@@@@@@@@@@@@@@OOOOXXXX####",
"####XXXXOOOO@@@@@@@@@@@@@@@@########@@@@@@@@@@@@@@@@OOOOXXXX####",
"####XXXXOOOO@@@@@@@@@@@@@@@@########@@@@@@@@@@@@@@@@OOOOXXXX####",
"####XXXXOOOO@@@@@@@@@@@@@@@@########@@@@@@@@@@@@@@@@OOOOXXXX####",
"####XXXXOOOOOOOO@@@@@@@@@@@@@@@@@@@@@@@@@@@@@@@@XXXXOOOOXXXX####",
"####XXXXOOOOOOOO@@@@@@@@@@@@@@@@@@@@@@@@@@@@@@@@XXXXOOOOXXXX####",
"####XXXXOOOOOOOO++@@@@@@@@@@@@@@@@@@@@@@@@@@@@@@XXXXooOOXXXX####",
"####XXXXOOOOOOOO++@@@@@@@@@@@@@@@@@@@@@@@@@@@@@@XXXXooOOXXXX####",
"####....OOOO@@++OOOOOOOO@@@@@@@@@@@@@@@@OOOOXXXXOOooXXXX....####",
"####....OOOO@@++OOOOOOOO@@@@@@@@@@@@@@@@OOOOXXXXOOooXXXX....####",
"####....OOOO@@++OOOOOOOO@@@@@@@@@@@@@@@@OOooXXXXooooXXXX....####",
"####....OOOO@@++OOOOOOOO@@@@@@@@@@@@@@@@OOooXXXXooooXXXX....####",
"####....OOOOOOOO++@@OOOOOOOOOOOOOOOOOOOOXXXXooooXXXXooOO....####",
"####....OOOOOOOO++@@OOOOOOOOOOOOOOOOOOOOXXXXooooXXXXooOO....####",
"####....OOOOOOOO++@@OOOOOOOOOOOOOOOOOOOOXXXXooooXXXXOOOO....####",
"####....OOOOOOOO++@@OOOOOOOOOOOOOOOOOOOOXXXXooooXXXXOOOO....####",
"########....@@++OOOOOOOOOOOOOOOOOOOOOOOOOOooXXXXooOO....    ####",
"########....@@++OOOOOOOOOOOOOOOOOOOOOOOOOOooXXXXooOO....    ####",
"########....@@@@OOOOOOOOOOOOOOOOOOOOOOOOOOooXXXXOOOO....    ####",
"########....@@@@OOOOOOOOOOOOOOOOOOOOOOOOOOooXXXXOOOO....    ####",
"########........OOOOOOOOOOOOOOOOOOOOOOOOXXXXooOO........    ####",
"########........OOOOOOOOOOOOOOOOOOOOOOOOXXXXooOO........    ####",
"########........OOOOOOOOOOOOOOOOOOOOOOOOXXXXOOOO........    ####",
"########........OOOOOOOOOOOOOOOOOOOOOOOOXXXXOOOO........    ####",
"########    ............OOOOOOOOOOOOXXXX............    ########",
"########    ............OOOOOOOOOOOOXXXX............    ########",
"########    ............OOOOOOOOOOOOXXXX............    ########",
"########    ............OOOOOOOOOOOOXXXX............    ########",
"############            ................            ############",
"############            ................            ############",
"############            ................            ############",
"############            ................            ############",
"####################                        ####################",
"####################                        ####################",
"####################                        ####################",
"####################                        ####################",
"################################################################",
"################################################################"
};
