/* XPM */
static char *result[] = {
/* columns rows colors chars-per-pixel */
"64 64 16 1 ",
"  c #665342",
". c #7E6049",
"X c #876D56",
"o c #9F8569",
"O c #B29679",
"+ c #B5997B",
"@ c #B6997C",
"# c #808080",
"$ c #BB9E80",
"% c #ACACBD",
"& c #B5B5C4",
"* c #CACAD5",
"= c #D8D8E0",
"- c #DFDFEA",
"; c #E8E8F0",
": c #F1F1F1",
/* pixels */
"::::::::::::::::::::::::&&&&&&&&&&&&&&&&::::::::::::::::::::::::",
"::::::::::::::::::::::::&&&&&&&&&&&&&&&&::::::::::::::::::::::::",
"::::::::::::::::::::::::&&&&&&&&&&&&&&&&::::::::::::::::::::::::",
"::::::::::::::::::::::::&&&&&&&&&&&&&&&&::::::::::::::::::::::::",
"::::&&&&************************************************&&&&::::",
"::::&&&&************************************************&&&&::::",
"::::&&&&************************************************&&&&::::",
"::::&&&&************************************************&&&&::::",
"::::&&&&;;;;----------------------------------------;;;;&&&&::::",
"::::&&&&;;;;----------------------------------------;;;;&&&&::::",
"::::&&&&;;;;----------------------------------------;;;;&&&&::::",
"::::&&&&;;;;----------------------------------------;;;;&&&&::::",
"::::&&&&;;;;;;;;;;;;;;;;::::::::::::::::;;;;;;;;;;;;;;;;&&&&::::",
"::::&&&&;;;;;;;;;;;;;;;;::::::::::::::::;;;;;;;;;;;;;;;;&&&&::::",
"::::&&&&;;;;;;;;;;;;;;;;::::::::::::::::;;;;;;;;;;;;;;;;&&&&::::",
"::::&&&&;;;;;;;;;;;;;;;;::::::::::::::::;;;;;;;;;;;;;;;;&&&&::::",
"::::%%%%%%%%========%%%%%%%%%%%%%%%%%%%%========%%%%%%%%    ::::",
"::::%%%%%%%%========%%%%%%%%%%%%%%%%%%%%========%%%%%%%%    ::::",
"::::%%%%%%%%========%%%%%%%%%%%%%%%%%%%%========%%%%%%%%    ::::",
"::::%%%%%%%%========%%%%%%%%%%%%%%%%%%%%========%%%%%%%%    ::::",
"::::    $$$$%%%%%%%%$$$$$$$$%%%%$$$$$$$$%%%%%%%%$$$$$$$$    ::::",
"::::    $$$$%%%%%%%%$$$$$$$$%%%%$$$$$$$$%%%%%%%%$$$$$$$$    ::::",
"::::    $$$$%%%%%%%%$$$$$$$$%%%%$$$$$$$$%%%%%%%%$$$$$$$$    ::::",
"::::    $$$$%%%%%%%%$$$$$$$$%%%%$$$$$$$$%%%%%%%%$$$$$$$$    ::::",
"::::    $$$$$$oooooooo$$oo$$$$$$oo$$oo$$oooo%%%%oo$$$$$$    ::::",
"::::    $$$$$$oooooooo$$oo$$$$$$oo$$oo$$oooo%%%%oo$$$$$$    ::::",
"::::    $$$$$$oo$$$$$$$$oo@@$$@@oo$$oo$$$$$$%%%%$$$$$$$$    ::::",
"::::    $$$$$$oo$$$$$$$$oo@@$$@@oo$$oo$$$$$$%%%%$$$$$$$$    ::::",
"::::    $$$$$$oo$$$$$$$$@@oo$$oo@@$$oo$$$$$$oo$$$$$$$$$$    ::::",
"::::    $$$$$$oo$$$$$$$$@@oo$$oo@@$$oo$$$$$$oo$$$$$$$$$$    ::::",
"::::    $$$$$$oo$$$$$$$$$$oo++oo$$$$oo$$$$$$oo$$$$$$$$$$    ::::",
"::::    $$$$$$oo$$$$$$$$$$oo++oo$$$$oo$$$$$$oo$$$$$$$$$$    ::::",
"::::    $$$$$$oooooooo$$$$OOooOO$$$$oo$$$$$$oo$$$$$$$$$$    ::::",
"::::    $$$$$$oooooooo$$$$OOooOO$$$$oo$$$$$$oo$$$$$$$$$$    ::::",
"::::    $$$$$$oo$$$$$$$$$$oo++oo$$$$oo$$$$$$oo$$$$$$$$$$    ::::",
"::::    $$$$$$oo$$$$$$$$$$oo++oo$$$$oo$$$$$$oo$$$$$$$$$$    ::::",
"::::    $$$$$$oo$$$$$$$$@@oo$$oo@@$$oo$$$$$$oo$$$$$$$$$$    ::::",
"::::    $$$$$$oo$$$$$$$$@@oo$$oo@@$$oo$$$$$$oo$$$$$$$$$$    ::::",
"::::    $$$$$$oo$$$$$$$$oo@@$$@@oo$$oo$$$$$$oo$$$$$$$$$$    ::::",
"::::    $$$$$$oo$$$$$$$$oo@@$$@@oo$$oo$$$$$$oo$$$$$$$$$$    ::::",
"::::    $$$$$$oooooooo$$oo$$$$$$oo$$oo$$$$$$oo$$$$$$$$$$    ::::",
"::::    $$$$$$oooooooo$$oo$$$$$$oo$$oo$$$$$$oo$$$$$$$$$$    ::::",
"::::    $$$$$$$$$$$$$$$$$$$$$$$$$$$$$$$$$$$$$$$$$$$$$$$$    ::::",
"::::    $$$$$$$$$$$$$$$$$$$$$$$$$$$$$$$$$$$$$$$$$$$$$$$$    ::::",
"::::                    XXXXXXXXXXXXXXXX                    ::::",
"::::                    XXXXXXXXXXXXXXXX                    ::::",
"::::                    XXXXXXXXXXXXXXXX                    ::::",
"::::                    XXXXXXXXXXXXXXXX                    ::::",
"::::::::::::::::::::::::....oooooooo....::::::::::::::::::::::::",
"::::::::::::::::::::::::....oooooooo....::::::::::::::::::::::::",
"::::::::::::::::::::::::....oooooooo....::::::::::::::::::::::::",
"::::::::::::::::::::::::....oooooooo....::::::::::::::::::::::::",
"::::::::::::::::::::::::....$$$$$$$$....::::::::::::::::::::::::",
"::::::::::::::::::::::::....$$$$$$$$....::::::::::::::::::::::::",
"::::::::::::::::::::::::....$$$$$$$$....::::::::::::::::::::::::",
"::::::::::::::::::::::::....$$$$$$$$....::::::::::::::::::::::::",
"::::::::::::::::########................########::::::::::::::::",
"::::::::::::::::########................########::::::::::::::::",
"::::::::::::::::########................########::::::::::::::::",
"::::::::::::::::########................########::::::::::::::::",
"::::::::::::::::################################::::::::::::::::",
"::::::::::::::::################################::::::::::::::::",
"::::::::::::::::################################::::::::::::::::",
"::::::::::::::::################################::::::::::::::::"
};
