/* XPM */
static char *result[] = {
/* columns rows colors chars-per-pixel */
"64 64 11 1 ",
"  c black",
". c #692E09",
"X c #A44222",
"o c #BB502C",
"O c #DF590A",
"+ c #F46F20",
"@ c #F58A48",
"# c #EBB08F",
"$ c #EFBDA1",
"% c #FBD8C2",
"& c None",
/* pixels */
"&&&&&&&&&&&&&&&&&&&&&&&&&&&&&&&&&&&&&&&&&&&&&&&&&&&&&&&&&&&&&&&&",
"&&&&&&&&&&&&&&&&&&&&&&&&&&&&&&&&&&&&&&&&&&&&&&&&&&&&&&&&&&&&&&&&",
"&&&&&&&&&&&&&&&&&&&&&&&&&&&&&&&&&&&&&&&&&&&&&&&&&&&&&&&&&&&&&&&&",
"&&&&&&&&&&&&&&&&&&&&&&&&&&&&&&&&&&&&&&&&&&&&&&&&&&&&&&&&&&&&&&&&",
"&&&&&&&&&&&&&&&&&&&&&&&&&&&&&&&&&&&&&&&&&&&&oooooooo&&&&&&&&&&&&",
"&&&&&&&&&&&&&&&&&&&&&&&&&&&&&&&&&&&&&&&&&&&&oooooooo&&&&&&&&&&&&",
"&&&&&&&&&&&&&&&&&&&&&&&&&&&&&&&&&&&&&&&&&&&&oooooooo&&&&&&&&&&&&",
"&&&&&&&&&&&&&&&&&&&&&&&&&&&&&&&&&&&&&&&&&&&&oooooooo&&&&&&&&&&&&",
"&&&&&&&&&&&&&&&&&&&&&&&&&&&&&&&&&&&&&&&&&&&&oooo@@@@oooo&&&&&&&&",
"&&&&&&&&&&&&&&&&&&&&&&&&&&&&&&&&&&&&&&&&&&&&oooo@@@@oooo&&&&&&&&",
"&&&&&&&&&&&&&&&&&&&&&&&&&&&&&&&&&&&&&&&&&&&&oooo@@@@oooo&&&&&&&&",
"&&&&&&&&&&&&&&&&&&&&&&&&&&&&&&&&&&&&&&&&&&&&oooo@@@@oooo&&&&&&&&",
"&&&&&&&&&&&&&&&&&&&&&&&&&&&&&&&&&&&&&&&&oooo@@@@@@@@OOOOXXXX&&&&",
"&&&&&&&&&&&&&&&&&&&&&&&&&&&&&&&&&&&&&&&&oooo@@@@@@@@OOOOXXXX&&&&",
"&&&&&&&&&&&&&&&&&&&&&&&&&&&&&&&&&&&&&&&&oooo@@@@@@@@OOOOXXXX&&&&",
"&&&&&&&&&&&&&&&&&&&&&&&&&&&&&&&&&&&&&&&&oooo@@@@@@@@OOOOXXXX&&&&",
"&&&&&&&&&&&&&&&&&&&&oooooooo&&&&oooooooo####++++OOOOXXXXXXXX&&&&",
"&&&&&&&&&&&&&&&&&&&&oooooooo&&&&oooooooo####++++OOOOXXXXXXXX&&&&",
"&&&&&&&&&&&&&&&&&&&&oooooooo&&&&oooooooo####++++OOOOXXXXXXXX&&&&",
"&&&&&&&&&&&&&&&&&&&&oooooooo&&&&oooooooo####++++OOOOXXXXXXXX&&&&",
"&&&&&&&&&&&&&&&&oooo$$$$OOOOoooo++++%%%%$$$$####XXXX&&&&&&&&&&&&",
"&&&&&&&&&&&&&&&&oooo$$$$OOOOoooo++++%%%%$$$$####XXXX&&&&&&&&&&&&",
"&&&&&&&&&&&&&&&&oooo$$$$OOOOoooo++++%%%%$$$$####XXXX&&&&&&&&&&&&",
"&&&&&&&&&&&&&&&&oooo$$$$OOOOoooo++++%%%%$$$$####XXXX&&&&&&&&&&&&",
"&&&&&&&&&&&&&&&&oooo%%%%++++++++++++++++####....&&&&&&&&&&&&&&&&",
"&&&&&&&&&&&&&&&&oooo%%%%++++++++++++++++####....&&&&&&&&&&&&&&&&",
"&&&&&&&&&&&&&&&&oooo%%%%++++++++++++++++####....&&&&&&&&&&&&&&&&",
"&&&&&&&&&&&&&&&&oooo%%%%++++++++++++++++####....&&&&&&&&&&&&&&&&",
"&&&&&&&&&&&&&&&&oooo$$$$%%%%%%%%$$$$++++oooo....&&&&&&&&&&&&&&&&",
"&&&&&&&&&&&&&&&&oooo$$$$%%%%%%%%$$$$++++oooo....&&&&&&&&&&&&&&&&",
"&&&&&&&&&&&&&&&&oooo$$$$%%%%%%%%$$$$++++oooo....&&&&&&&&&&&&&&&&",
"&&&&&&&&&&&&&&&&oooo$$$$%%%%%%%%$$$$++++oooo....&&&&&&&&&&&&&&&&",
"&&&&&&&&&&&&oooo++++++++++++@@@@@@@@@@@@oooo....&&&&&&&&&&&&&&&&",
"&&&&&&&&&&&&oooo++++++++++++@@@@@@@@@@@@oooo....&&&&&&&&&&&&&&&&",
"&&&&&&&&&&&&oooo++++++++++++@@@@@@@@@@@@oooo....&&&&&&&&&&&&&&&&",
"&&&&&&&&&&&&oooo++++++++++++@@@@@@@@@@@@oooo....&&&&&&&&&&&&&&&&",
"&&&&&&&&&&&&oooooooo++++@@@@@@@@@@@@oooo....&&&&&&&&&&&&&&&&&&&&",
"&&&&&&&&&&&&oooooooo++++@@@@@@@@@@@@oooo....&&&&&&&&&&&&&&&&&&&&",
"&&&&&&&&&&&&oooooooo++++@@@@@@@@@@@@oooo....&&&&&&&&&&&&&&&&&&&&",
"&&&&&&&&&&&&oooooooo++++@@@@@@@@@@@@oooo....&&&&&&&&&&&&&&&&&&&&",
"&&&&&&&&oooo%%%%%%%%$$$$++++++++########....&&&&&&&&&&&&&&&&&&&&",
"&&&&&&&&oooo%%%%%%%%$$$$++++++++########....&&&&&&&&&&&&&&&&&&&&",
"&&&&&&&&oooo%%%%%%%%$$$$++++++++########....&&&&&&&&&&&&&&&&&&&&",
"&&&&&&&&oooo%%%%%%%%$$$$++++++++########....&&&&&&&&&&&&&&&&&&&&",
"&&&&&&&&oooo    ++++$$$$++++oooooooo....&&&&&&&&&&&&&&&&&&&&&&&&",
"&&&&&&&&oooo    ++++$$$$++++oooooooo....&&&&&&&&&&&&&&&&&&&&&&&&",
"&&&&&&&&oooo    ++++$$$$++++oooooooo....&&&&&&&&&&&&&&&&&&&&&&&&",
"&&&&&&&&oooo    ++++$$$$++++oooooooo....&&&&&&&&&&&&&&&&&&&&&&&&",
"&&&&&&&&oooo++++++++########oooo....&&&&&&&&&&&&&&&&&&&&&&&&&&&&",
"&&&&&&&&oooo++++++++########oooo....&&&&&&&&&&&&&&&&&&&&&&&&&&&&",
"&&&&&&&&oooo++++++++########oooo....&&&&&&&&&&&&&&&&&&&&&&&&&&&&",
"&&&&&&&&oooo++++++++########oooo....&&&&&&&&&&&&&&&&&&&&&&&&&&&&",
"&&&&&&&&....OOOOOOOOoooo........&&&&&&&&&&&&&&&&&&&&&&&&&&&&&&&&",
"&&&&&&&&....OOOOOOOOoooo........&&&&&&&&&&&&&&&&&&&&&&&&&&&&&&&&",
"&&&&&&&&....OOOOOOOOoooo........&&&&&&&&&&&&&&&&&&&&&&&&&&&&&&&&",
"&&&&&&&&....OOOOOOOOoooo........&&&&&&&&&&&&&&&&&&&&&&&&&&&&&&&&",
"&&&&&&&&&&&&............&&&&&&&&&&&&&&&&&&&&&&&&&&&&&&&&&&&&&&&&",
"&&&&&&&&&&&&............&&&&&&&&&&&&&&&&&&&&&&&&&&&&&&&&&&&&&&&&",
"&&&&&&&&&&&&............&&&&&&&&&&&&&&&&&&&&&&&&&&&&&&&&&&&&&&&&",
"&&&&&&&&&&&&............&&&&&&&&&&&&&&&&&&&&&&&&&&&&&&&&&&&&&&&&",
"&&&&&&&&&&&&&&&&&&&&&&&&&&&&&&&&&&&&&&&&&&&&&&&&&&&&&&&&&&&&&&&&",
"&&&&&&&&&&&&&&&&&&&&&&&&&&&&&&&&&&&&&&&&&&&&&&&&&&&&&&&&&&&&&&&&",
"&&&&&&&&&&&&&&&&&&&&&&&&&&&&&&&&&&&&&&&&&&&&&&&&&&&&&&&&&&&&&&&&",
"&&&&&&&&&&&&&&&&&&&&&&&&&&&&&&&&&&&&&&&&&&&&&&&&&&&&&&&&&&&&&&&&"
};
