/* XPM */
static char *result[] = {
/* columns rows colors chars-per-pixel */
"64 64 168 2 ",
"   c #010000",
".  c #080502",
"X  c #110C06",
"o  c #281F14",
"O  c #251A0C",
"+  c #2B261C",
"@  c #322311",
"#  c #051622",
"$  c #091924",
"%  c #0C1E29",
"&  c #101C23",
"*  c #0F222D",
"=  c #11222E",
"-  c #172126",
";  c #122531",
":  c #192731",
">  c #152A36",
",  c #1A2933",
"<  c #172C39",
"1  c #192E3C",
"2  c #1B303E",
"3  c #3A3123",
"4  c #383229",
"5  c #212F39",
"6  c #23333D",
"7  c #37383A",
"8  c #432F16",
"9  c #453117",
"0  c #4B3519",
"q  c #44321A",
"w  c #533B1D",
"e  c #523D20",
"r  c #5C431F",
"t  c #504736",
"y  c #44433A",
"u  c #684E2B",
"i  c #705027",
"p  c #655338",
"a  c #745C3A",
"s  c #705C37",
"d  c #1F3644",
"f  c #203746",
"g  c #203847",
"h  c #233B4B",
"j  c #293F4C",
"k  c #263F50",
"l  c #2B414E",
"z  c #3A474F",
"x  c #274153",
"c  c #2A4455",
"v  c #344751",
"b  c #344954",
"n  c #3C4D55",
"m  c #344C5C",
"M  c #384F5E",
"N  c #39505F",
"B  c #3C5463",
"V  c #494940",
"C  c #776A52",
"Z  c #6A6454",
"A  c #4B5F6D",
"S  c #4C606D",
"D  c #526471",
"F  c #5C646A",
"G  c #636C71",
"H  c #66747E",
"J  c #8B6A2D",
"K  c #9B7B2F",
"L  c #8D6A3A",
"P  c #876733",
"I  c #916833",
"U  c #906937",
"Y  c #816F4E",
"T  c #806746",
"R  c #8C7044",
"E  c #8E774F",
"W  c #816F52",
"Q  c #8A7451",
"!  c #BC953F",
"~  c #DCB63E",
"^  c #AD8642",
"/  c #B38142",
"(  c #B88545",
")  c #C78F48",
"_  c #C5924F",
"`  c #CA9149",
"'  c #D79B4E",
"]  c #D99D4E",
"[  c #D5974A",
"{  c #D49E56",
"}  c #DB9E51",
"|  c #D19B58",
" . c #DEA847",
".. c #D9A04C",
"X. c #D2AC48",
"o. c #DEA94A",
"O. c #D6A546",
"+. c #DDB640",
"@. c #D7A05B",
"#. c #DEA754",
"$. c #E1AE4A",
"%. c #E5B647",
"&. c #E8B745",
"*. c #E6BA45",
"=. c #E9BC45",
"-. c #E4B348",
";. c #E0B35A",
":. c #D8A464",
">. c #EFC842",
",. c #ECC344",
"<. c #F1CC41",
"1. c #F4D140",
"2. c #F1D251",
"3. c #6F7C84",
"4. c #717E86",
"5. c #768289",
"6. c #79858C",
"7. c #7C8B94",
"8. c #85888A",
"9. c #858481",
"0. c #93908C",
"q. c #838D94",
"w. c #86939C",
"e. c #919191",
"r. c #92979B",
"t. c #8F9BA2",
"y. c #9FA3A5",
"u. c #A5A7A9",
"i. c #A6A9AA",
"p. c #AAACAD",
"a. c #A9B0B4",
"s. c #B4B4B4",
"d. c #B8B7B7",
"f. c #BABABA",
"g. c #B5BBBE",
"h. c #D1BA82",
"j. c #DDBF99",
"k. c #D4B997",
"l. c #DAC58E",
"z. c #E3C98D",
"x. c #E1C797",
"c. c #E5CF95",
"v. c #E3CE9E",
"b. c #DEC3A1",
"n. c #D0C5AA",
"m. c #BCBFC1",
"M. c #BEC1C4",
"N. c #C2C4C5",
"B. c #CFC9C0",
"V. c #C6C8C8",
"C. c #CCCCCD",
"Z. c #D2CCC3",
"A. c #CCCFD1",
"S. c #CFD4D9",
"D. c #D2D3D4",
"F. c #DEDEDE",
"G. c #D3D6D8",
"H. c #E4DBC3",
"J. c #E4DED6",
"K. c #E2DFD9",
"L. c #E3E0DC",
"P. c #E6E2D3",
"I. c #E4E4E4",
"U. c #E8E7E7",
"Y. c #E5E6E8",
"T. c #E9E9E9",
"R. c #E8E8E7",
"E. c None",
/* pixels */
"E.E.E.E.E.E.E.E.E.E.E.E.E.E.E.E.E.E.E.E.E.E.E.E.E.E.E.E.E.E.E.E.E.E.E.E.E.E.E.E.E.E.E.E.E.E.E.E.E.E.E.E.E.E.E.E.E.E.E.E.E.E.E.E.",
"E.E.E.E.E.E.E.E.E.E.E.E.E.E.E.E.E.E.E.E.E.E.E.E.E.E.E.E.E.E.E.E.E.E.E.E.E.E.E.E.E.E.E.E.E.E.E.E.E.E.E.E.E.E.E.E.E.E.E.E.E.E.E.E.",
"E.E.E.E.E.E.E.E.E.E.E.E.E.E.E.E.E.E.E.E.E.E.E.E.E.E.E.E.E.E.E.E.E.E.E.E.E.E.E.E.E.E.E.E.E.E.E.E.E.E.E.E.E.E.E.E.E.E.E.E.E.E.E.E.",
"E.E.E.E.E.E.E.E.E.E.E.E.E.E.E.E.E.E.E.E.E.E.E.E.E.E.E.E.E.E.E.E.E.E.E.E.E.E.E.E.E.E.E.E.E.E.E.E.E.E.E.E.E.E.E.E.E.E.E.E.E.E.E.E.",
"E.E.E.E.E.E.E.E.E.E.E.E.E.E.E.E.E.E.E.E.E.E.E.E.E.E.E.E.E.E.E.E.E.E.E.E.E.E.E.E.E.E.E.E.E.E.E.E.E.E.E.E.E.E.E.E.E.E.E.E.E.E.E.E.",
"E.E.E.E.E.E.E.E.E.E.E.E.E.E.E.E.E.E.E.E.E.E.E.E.E.E.E.E.E.E.E.E.E.E.E.E.E.E.E.E.E.E.E.E.E.E.E.E.E.E.E.E.E.E.E.E.E.E.E.E.E.E.E.E.",
"E.E.E.E.E.E.E.E.E.E.E.E.E.E.E.E.E.E.E.E.E.E.E.E.E.E.E.E.E.E.E.E.E.E.E.E.E.E.E.E.E.E.E.E.E.E.E.E.E.E.E.E.E.E.E.E.E.E.E.E.E.E.E.E.",
"E.E.E.E.E.E.E.E.E.E.E.E.E.E.E.E.E.E.E.E.E.E.E.E.E.E.E.E.E.E.E.E.E.E.E.E.E.E.E.E.E.E.E.E.E.E.E.E.E.E.E.E.E.E.E.E.E.E.E.E.E.E.E.E.",
"E.E.E.E.E.E.E.E.E.E.E.E.E.E.E.E.E.E.E.E.E.E.E.E.E.E.E.E.E.E.E.E.E.E.E.E.E.E.E.E.E.E.E.E.E.E.E.E.E.E.E.E.E.E.E.E.E.E.E.E.E.E.E.E.",
"E.E.E.E.E.E.E.E.E.E.E.E.E.E.E.E.E.E.E.E.E.E.E.E.E.E.E.E.E.E.E.E.E.E.E.E.E.E.E.E.E.E.E.E.E.E.E.E.E.E.E.E.E.E.E.E.E.E.E.E.E.E.E.E.",
"E.E.E.E.E.E.E.E.E.E.E.E.E.E.E.E.E.E.E.E.E.E.E.E.E.E.E.E.E.E.E.E.E.E.E.E.E.E.E.E.E.E.E.E.E.E.E.E.E.E.E.E.E.E.E.E.E.E.E.E.E.E.E.E.",
"E.E.E.E.E.E.E.E.E.E.E.E.E.E.E.E.E.E.E.E.E.E.E.E.E.E.E.E.E.E.E.E.E.E.E.E.E.E.E.E.E.E.E.E.E.E.E.E.E.E.E.E.E.E.E.E.E.E.E.E.E.E.E.E.",
"E.E.E.E.E.E.E.E.E.E.E.E.E.E.E.E.E.E.E.E.E.E.E.E.E.E.E.E.E.E.E.E.E.E.E.E.E.E.E.E.E.E.E.E.E.E.E.E.E.E.E.E.E.E.E.E.E.E.E.E.E.E.E.E.",
"E.E.E.E.E.E.E.E.E.E.E.E.E.E.E.E.E.E.E.E.E.E.E.E.E.E.E.E.E.$ $ $ $ $ $ $ $ $ $ E.E.E.E.E.E.E.E.E.E.E.E.E.E.E.E.E.E.E.E.E.E.E.E.E.",
"E.E.E.E.E.E.E.E.E.E.E.E.E.E.E.E.E.E.E.E.E.E.E.E.E.E.E.E.# $ $ $ $ $ # $ $ $ $ $ E.E.E.E.E.E.E.E.E.E.E.E.E.E.E.E.E.E.E.E.E.E.E.E.",
"E.E.E.E.E.E.E.E.E.E.E.E.E.E.E.E.E.E.E.E.E.E.E.E.E.$ $ E.> 1 1 1 1 1 1 1 1 ; = % E.E.E.E.E.E.E.E.E.E.E.E.E.E.E.E.E.E.E.E.E.E.E.E.",
"E.E.E.E.E.E.E.E.E.E.E.E.E.E.E.E.E.E.E.E.E.E.E.E.$ # $ # 1 c c c c c c c c d < = $ $ E.E.E.E.E.E.E.E.E.E.E.E.E.E.E.E.E.E.E.E.E.E.",
"E.E.E.E.E.E.E.E.E.E.E.E.E.E.E.E.E.E.E.E.E.E.E.$ ; ; ; ; f c c c c c c c c h 1 > ; = % E.E.E.E.E.E.E.E.E.E.E.E.E.E.E.E.E.E.E.E.E.",
"E.E.E.E.E.E.E.E.E.E.E.E.E.E.E.E.E.E.E.E.E.E.$ % h x x x c c c c c c x x c x x x c d $ $ E.E.E.E.E.E.E.E.E.E.E.E.E.E.E.E.E.E.E.E.",
"E.E.E.E.E.E.E.E.E.E.E.E.E.E.E.E.E.E.E.E.E.E.5 6 m B m x c c m N B B B A B B B M c f % % E.E.E.E.E.E.E.E.E.E.E.E.E.E.E.E.E.E.E.E.",
"E.E.E.E.E.E.E.E.E.E.E.E.E.E.E.E.E.E.E.E.# j M.C.p.i.3.k x x 3.u.p.C.S.A.D.D.D.q.k k k h % $ E.E.E.E.E.E.E.E.E.E.E.E.E.E.E.E.E.E.",
"E.E.E.E.E.E.E.E.E.E.E.E.E.E.E.E.E.E.E.: : n D.I.f.f.5.m M m 4.d.m.I.I.I.I.I.T.t.M m c x % $ $ E.E.E.E.E.E.E.E.E.E.E.E.E.E.E.E.E.",
"E.E.E.E.E.E.E.E.E.E.E.E.E.E.E.E.E.E.# F f.M.F.I.F.F.V.m.m.m.V.F.F.I.I.I.I.I.I.N.u.q.m k g f = $ E.E.E.E.E.E.E.E.E.E.E.E.E.E.E.E.",
"E.E.E.E.E.E.E.E.E.E.E.E.E.E.E.E.E.$ # G I.U.U.U.Y.Y.Y.Y.Y.U.Y.Y.I.I.I.T.T.I.I.V.s.u.N c c c ; $ $ E.E.E.E.E.E.E.E.E.E.E.E.E.E.E.",
"E.E.E.E.E.E.E.E.E.E.E.E.E.E.E.E.E.$ # G I.D.e.e.k.j.x.c.c.c.x.x.b.L.F.r.e.A.I.G.C.s.B x c c ; # $ E.E.E.E.E.E.E.E.E.E.E.E.E.E.E.",
"E.E.E.E.E.E.E.E.E.E.E.E.E.E.E.E.E.$ # G U.m.7 4 ) [  .&.*.*.O.[ @.L.S.z 7 f.I.I.I.M.m x c x ; $ E.E.E.E.E.E.E.E.E.E.E.E.E.E.E.E.",
"E.E.E.E.E.E.E.E.E.E.E.E.E.E.E.E.E.$ # Z c.h.R R ..o.-.*.*.*.o.o.$.c.l.E R n.I.I.I.V.5.H m x > = % $ E.E.E.E.E.E.E.E.E.E.E.E.E.E.",
"E.E.E.E.E.E.E.E.E.E.E.E.E.E.E.E.E.E.# s &.&.&.&.*.*.%.*.*.*.*.*.*.*.&.&.&.c.T.I.I.F.f.i.M k 1 < = $ $ E.E.E.E.E.E.E.E.E.E.E.E.E.",
"E.E.E.E.E.E.E.E.E.E.E.E.E.E.E.E.E.4 + U =.=.=.=.*.*.,.*.*.*.*.,.*.*.*.&.&.z.K.K.I.F.m.i.B x d 2 ; $ $ E.E.E.E.E.E.E.E.E.E.E.E.E.",
"E.E.E.E.E.E.E.E.E.E.E.E.E.E.E.$ $ a `  .<.1.<.<.<.1.>.1.<.1.1.1.>.*.%...] } { b.Y.I.I.A.B c x c 1 $ E.E.E.E.E.E.E.E.E.E.E.E.E.E.",
"E.E.E.E.E.E.E.E.E.E.E.E.E.E.E.$ $ T :.;.2.2.<.<.>.>.>.1.>.>.<.>.>.*.-.] ' } :.b.U.F.G.M.B c c c 2 $ $ E.E.E.E.E.E.E.E.E.E.E.E.E.",
"E.E.E.E.E.E.E.E.E.E.E.E.E.E.E.$ $ 9.J.J.P.H.#.......................] ' [ x.J.K.I.N.S B c c c c g > = $ $ E.E.E.E.E.E.E.E.E.E.E.",
"E.E.E.E.E.E.E.E.E.E.E.E.E.E.E.$ $ 8.U.I.Y.J.:.| | | | | | | | | | | | | @.v.I.I.I.f.M x c c c c h 2 * $ $ E.E.E.E.E.E.E.E.E.E.E.",
"E.E.E.E.E.E.E.E.E.E.E.E.E.E.E.$ $ 8.U.I.I.F.Z.B.B.B.B.B.B.B.B.B.C.n.B.B.B.L.Y.D.f.i.N c c c c c c c 2 $ $ E.E.E.E.E.E.E.E.E.E.E.",
"E.E.E.E.E.E.E.E.E.E.E.E.E.E.E.% $ 8.U.Y.I.I.I.I.I.I.I.I.I.I.I.Y.U.I.Y.I.I.I.I.C.s.y.M c c c c c c c d $ $ E.E.E.E.E.E.E.E.E.E.E.",
"E.E.E.E.E.E.E.E.E.E.E.E.E.E., 4.q.m.I.I.I.I.I.I.I.I.I.I.I.I.I.I.Y.I.I.I.I.I.Y.a.3.D c c c c c c c c d $ $ E.E.E.E.E.E.E.E.E.E.E.",
"E.E.E.E.E.E.E.E.E.E.E.E.E.# , m.Y.I.I.I.I.I.I.I.I.I.I.I.I.I.I.I.I.I.I.L.I.I.T.w.x x c c c c c c c c d $ $ E.E.E.E.E.E.E.E.E.E.E.",
"E.E.E.E.E.E.E.E.E.E.E.E.E.$ , f.I.Y.I.I.I.I.I.I.I.I.I.I.I.I.I.I.I.I.I.I.I.I.T.w.x c c c c c c c c c h * * $ E.E.E.E.E.E.E.E.E.E.",
"E.E.E.E.E.E.E.E.E.E.E.E.E.$ , m.I.I.I.I.I.I.I.I.I.I.I.I.I.I.I.I.I.I.I.I.I.I.Y.w.x c c c c c c c c c h < > $ $ E.E.E.E.E.E.E.E.E.",
"E.E.E.E.E.E.E.E.E.E.E.E.$ $ : s.I.F.I.I.I.I.I.I.I.I.I.I.I.I.I.I.I.I.I.I.I.I.T.w.c c c c c c c c c c h 2 > $ $ E.E.E.E.E.E.E.E.E.",
"E.E.E.E.E.E.E.E.E.E.E.$ $ $ $ 4.f.C.U.I.I.I.I.I.I.I.I.I.I.I.I.I.I.I.I.I.I.I.T.w.x x c c c c c c c c c c d $ $ E.E.E.E.E.E.E.E.E.",
"E.E.E.E.E.E.E.E.E.E.$ $ $ $ $ H i.N.F.I.I.I.I.I.I.I.I.I.I.I.I.I.I.I.I.I.I.F.I.w.x x c c c c c c c c c c d $ $ E.E.E.E.E.E.E.E.E.",
"E.E.E.E.E.E.E.E.E.E.$ $ $ $ $ c M 4.f.C.U.I.I.I.Y.I.I.Y.I.I.I.I.I.I.I.I.I.A.d.5.x c c c c c c c c c c c g $ $ E.E.E.E.E.E.E.E.E.",
"E.E.E.E.E.E.E.E.E.E.$ $ $ $ $ d k 3.i.N.F.F.F.F.F.F.F.F.F.F.F.F.F.F.L.F.I.V.s.3.x c c c c c c c c c c c g $ $ E.E.E.E.E.E.E.E.E.",
"E.E.E.E.E.E.E.E.E.E.$ $ $ $ % d c m N 6.f.d.d.d.d.d.d.d.m.s.d.s.d.d.d.d.d.d.s.3.x c c c c c c c c c c c d % $ E.E.E.E.E.E.E.E.E.",
"E.E.E.E.E.E.E.E.E.E.$ $ $ $ $ d c c k 4.d.d.s.d.s.s.s.s.s.s.s.s.s.s.s.s.s.s.d.3.x c c c c c c c c c c c d $ $ E.E.E.E.E.E.E.E.E.",
"E.E.E.E.E.E.E.E.E.E.$ $ $ $ $ d c c c S 4.4.3.4.p.s.s.s.s.s.s.s.s.s.p.5.3.5.3.S c c c c h g c c c c c c d % $ E.E.E.E.E.E.E.E.E.",
"E.E.E.E.E.E.E.E.E.E.$ $ $ $ % d c c c c k k k N u.s.s.s.s.s.a.m.s.d.i.M x x x x c c c c 2 < x c c c x m d $ $ E.E.E.E.E.E.E.E.E.",
"E.E.E.E.E.E.E.E.E.E.E.$ $ $ $ 2 f k k k c c c m 3.4.3.3.4.4.4.4.3.3.3.m c c c c c c c c < 1 k c c c c c d $ $ E.E.E.E.E.E.E.E.E.",
"E.E.E.E.E.E.E.E.E.E.E.E.E.$ $ = < f k m c c c c k k c k c c k x x k k c c c c c c c c k 1 1 c c c c c c d $ $ E.E.E.E.E.E.E.E.E.",
"E.E.E.E.E.E.E.E.E.E.E.E.E.$ $ * > f k m c c c c c c c c c c c c c c c c c c c c c c c c 1 1 h c x x x x d $ $ E.E.E.E.E.E.E.E.E.",
"E.E.E.E.E.E.E.E.E.E.E.E.E.E.E.$ # d m k c c c c c c c c c c c c c c c c c c c c c c c c c k ; % $ $ * * % E.E.E.E.E.E.E.E.E.E.E.",
"E.E.E.E.E.E.E.E.E.E.E.E.E.E.E.$ # < k m c c k k c c c c c c c c c c c c c c c c c c c c c c ; % % % $ $ $ E.E.E.E.E.E.E.E.E.E.E.",
"E.E.E.E.E.E.E.E.E.E.E.E.E.E.E.$ # d k k c c c m c c c c c c c c c c c c c c c c c c c c c c k k x x d $ $ E.E.E.E.E.E.E.E.E.E.E.",
"E.E.E.E.E.E.E.E.E.E.E.E.E.E.E.% % d j j c c m k c c c c c c c c c c c c c c j j j v n n n n v c l x d $ $ E.E.E.E.E.E.E.E.E.E.E.",
"E.E.E.E.E.E.E.E.E.E.E.E.E.E.E.3 q i R p k c k m c c c c c c c c c c c c c p U L L ^ X.X.X.X.^ L t * * E.E.E.E.E.E.E.E.E.E.E.E.E.",
"E.E.E.E.E.E.E.E.E.E.E.E.E.E.E.0 w I } R j j k k c c c c c c c c c c x x k L ....' o.1.1.1.1.-.} s # E.E.E.E.E.E.E.E.E.E.E.E.E.E.",
"E.E.E.E.E.E.E.E.E.E.E.0 0 E.0 i U K } K Q W m k c c c c c c c c m C W W Y ( &.&.*.,.1.1.1.1.*.*.P + + E.E.E.E.E.E.E.E.E.E.E.E.E.",
"E.E.E.E.E.E.E.E.E.E.0 0 0 0 0 I } ' ' ' } _ z k c c c c c c c c n _ ] } ..,.1.1.1.1.1.1.1.<.1.1.K 0 0 E.E.E.E.E.E.E.E.E.E.E.E.E.",
"E.E.E.E.E.E.E.E.E.E.0 0 w P I / } ' ' ' } | Q C b c c c c c c c n _ ]  .-.>.1.1.1.1.1.1.1.1.1.1.K 0 0 E.E.E.E.E.E.E.E.E.E.E.E.E.",
"E.E.E.E.E.E.E.E.E.E.E.0 w ` } ] } ' ' ' ' ' ] ` V c c c l c c c n _ ] ,.<.1.1.1.1.1.1.1.1.1.1.1.K 9 E.E.E.E.E.E.E.E.E.E.E.E.E.E.",
"E.E.E.E.E.E.E.    E.o 8 w ( ` ` ) ) ) ) ) ` ` ( y x x x x x x h z ( ` X.+.+.+.+.~ ~ ~ ~ +.+.+.+.P q @ E.        E.E.E.E.E.E.E.E.",
"E.E.E.E.E.E.        . . X w r w r r r w r r r w - $ % % * $ * $ - r r r r r r r r r r r r r r r @ . .             E.E.E.E.E.E.E.",
"E.E.E.E.E.E.            . 0 0 0 0 0 0 0 0 0 0 q & $ $ $ $ $ $ # & 3 0 0 0 0 0 0 0 0 0 0 0 0 0 0 O                   E.E.E.E.E.E."
};
