/* XPM */
static char *result[] = {
/* columns rows colors chars-per-pixel */
"64 64 169 2 ",
"   c black",
".  c #01121E",
"X  c #27251E",
"o  c #2A271E",
"O  c #2B281F",
"+  c #061622",
"@  c #091722",
"#  c #071823",
"$  c #091924",
"%  c #0C1D29",
"&  c #0E212C",
"*  c #162026",
"=  c #10222E",
"-  c #122531",
";  c #152936",
":  c #1A2933",
">  c #152B38",
",  c #192E3C",
"<  c #182731",
"1  c #1A303E",
"2  c #2C2C26",
"3  c #322D21",
"4  c #2C353A",
"5  c #39372C",
"6  c #44321B",
"7  c #4B3519",
"8  c #553D1D",
"9  c #593F1E",
"0  c #5B421E",
"q  c #57401C",
"w  c #5E4420",
"e  c #4C463F",
"r  c #514435",
"t  c #7A572B",
"y  c #735328",
"u  c #725C3A",
"i  c #68502D",
"p  c #1F3645",
"a  c #203746",
"s  c #213847",
"d  c #243B4B",
"f  c #2C3E4B",
"g  c #253F51",
"h  c #274152",
"j  c #2A4455",
"k  c #354D5D",
"l  c #384F5E",
"z  c #374855",
"x  c #39505F",
"c  c #3C5362",
"v  c #4D4E4F",
"b  c #534D46",
"n  c #45525B",
"m  c #505456",
"M  c #7A6942",
"N  c #716240",
"B  c #7C6D51",
"V  c #485B67",
"C  c #515B62",
"Z  c #5A676F",
"A  c #62696D",
"S  c #60676D",
"D  c #616A70",
"F  c #66747E",
"G  c #6C757C",
"H  c #9A7A2F",
"J  c #93732D",
"K  c #8A6331",
"L  c #8E6930",
"P  c #836535",
"I  c #926934",
"U  c #996E37",
"Y  c #906733",
"T  c #9C7435",
"R  c #A0832D",
"E  c #C59A3E",
"W  c #DEB73F",
"Q  c #E2BF3D",
"!  c #E9C53E",
"~  c #F3CC3F",
"^  c #F4D13E",
"/  c #BB8644",
"(  c #C78F48",
")  c #C28C46",
"_  c #CA9249",
"`  c #CA9849",
"'  c #D6994D",
"]  c #D99C4E",
"[  c #D59645",
"{  c #DB9D50",
"}  c #C7985C",
"|  c #CDA14A",
" . c #D6AA42",
".. c #D9AA44",
"X. c #DBA14D",
"o. c #DFAB49",
"O. c #D7A547",
"+. c #D7A15E",
"@. c #D9A35D",
"#. c #DFB05B",
"$. c #E1AC4B",
"%. c #E4B646",
"&. c #E6B946",
"*. c #E8BB45",
"=. c #E3B449",
"-. c #E7B84B",
";. c #E5BC56",
":. c #E8BD59",
">. c #DAAE73",
",. c #DEB472",
"<. c #D9A96D",
"1. c #EDC443",
"2. c #F2CD41",
"3. c #F0C744",
"4. c #F4D140",
"5. c #F9D641",
"6. c #6F7C84",
"7. c #697780",
"8. c #727E87",
"9. c #738088",
"0. c #79858C",
"q. c #7E8A92",
"w. c #858788",
"e. c #888F93",
"r. c #86949C",
"t. c #88959E",
"y. c #959B9F",
"u. c #939799",
"i. c #8F9AA2",
"p. c #969DA1",
"a. c #9EA1A3",
"s. c #A4A6A8",
"d. c #A6A8AA",
"f. c #AAACAD",
"g. c #A2A4A5",
"h. c #A3ABB0",
"j. c #AFB0B1",
"k. c #B4B4B4",
"l. c #B9BABA",
"z. c #CAAC86",
"x. c #CDB290",
"c. c #DDBF99",
"v. c #DDBE96",
"b. c #C3BEB2",
"n. c #E8D495",
"m. c #E7D090",
"M. c #DACEB3",
"N. c #D8CAAA",
"B. c #E1D2BF",
"V. c #BCBFC1",
"C. c #BEC1C2",
"Z. c #C2C3C4",
"A. c #CDCDCD",
"S. c #D2D0C7",
"D. c #CFD2D4",
"F. c #D2D2D2",
"G. c #D3D6D9",
"H. c #DFDFDF",
"J. c #E3DDD5",
"K. c #E1DEDA",
"L. c #E4D9C5",
"P. c #E5E0D3",
"I. c #DEDFE1",
"U. c #DFE0E1",
"Y. c #E4E4E4",
"T. c #E8E7E7",
"R. c #E4E7EA",
"E. c #E9E9E8",
"W. c None",
/* pixels */
"W.W.W.W.W.W.W.W.W.W.W.W.W.W.W.W.W.W.W.W.W.W.W.W.W.W.W.W.W.$ $ $ $ $ $ $ $ $ $ W.W.W.W.W.W.W.W.W.W.W.W.W.W.W.W.W.W.W.W.W.W.W.W.W.",
"W.W.W.W.W.W.W.W.W.W.W.W.W.W.W.W.W.W.W.W.W.W.W.W.W.W.W.W.% $ $ $ $ % $ % $ $ $ $ W.W.W.W.W.W.W.W.W.W.W.W.W.W.W.W.W.W.W.W.W.W.W.W.",
"W.W.W.W.W.W.W.W.W.W.W.W.W.W.W.W.W.W.W.W.W.W.W.W.$ $ * $ ; a p p p p p p p > = % $ $ W.W.W.W.W.W.W.W.W.W.W.W.W.W.W.W.W.W.W.W.W.W.",
"W.W.W.W.W.W.W.W.W.W.W.W.W.W.W.W.W.W.W.W.W.W.W.W.. + @ @ , j j h j h h h h p > & # $ W.W.W.W.W.W.W.W.W.W.W.W.W.W.W.W.W.W.W.W.W.W.",
"W.W.W.W.W.W.W.W.W.W.W.W.W.W.W.W.W.W.W.W.W.W.W.< S S z , d j l 7.8.r.t.t.i.e.q.V , ; $ W.W.W.W.W.W.W.W.W.W.W.W.W.W.W.W.W.W.W.W.W.",
"W.W.W.W.W.W.W.W.W.W.W.W.W.W.W.W.W.W.W.W.W.W.. < g.k.6.g h g F k.l.Y.E.E.R.Y.E.t.g p $ + W.W.W.W.W.W.W.W.W.W.W.W.W.W.W.W.W.W.W.W.",
"W.W.W.W.W.W.W.W.W.W.W.W.W.W.W.W.W.W.W.W.$ s A G k.l.p.9.9.8.p.l.Z.Y.Y.Y.Y.Y.Y.h.c z ; - % W.W.W.W.W.W.W.W.W.W.W.W.W.W.W.W.W.W.W.",
"W.W.W.W.W.W.W.W.W.W.W.W.W.W.W.W.W.W.W.@ . h F.Y.H.H.Y.K.Y.I.Y.I.Y.Y.Y.Y.Y.Y.Y.A.s.y.l d % @ W.W.W.W.W.W.W.W.W.W.W.W.W.W.W.W.W.W.",
"W.W.W.W.W.W.W.W.W.W.W.W.W.W.W.W.W.W.W.4 4 n Z.F.H.K.J.P.P.P.J.J.J.Y.K.F.F.U.T.A.l.f.x g = % % W.W.W.W.W.W.W.W.W.W.W.W.W.W.W.W.W.",
"W.W.W.W.W.W.W.W.W.W.W.W.W.W.W.W.W.W.+ A F.j.v b } { ;.;.;.;.#.@.<.J.G.C v C.T.U.U.l.l j g d - @ W.W.W.W.W.W.W.W.W.W.W.W.W.W.W.W.",
"W.W.W.W.W.W.W.W.W.W.W.W.W.W.W.W.W.$ + A J.b.e r ( ' $.&.*.*.$.' @.L.S.m b l.R.Y.T.V.V k j j - # $ W.W.W.W.W.W.W.W.W.W.W.W.W.W.W.",
"W.W.W.W.W.W.W.W.W.W.W.W.W.W.W.W.W.$ + u :.;.| ` o.=.%.&.&.&.%.=.%.;.;.| ` N.Y.Y.Y.F.f.p.l j - # $ W.W.W.W.W.W.W.W.W.W.W.W.W.W.W.",
"W.W.W.W.W.W.W.W.W.W.W.W.W.W.W.W.W.$ + u %.*.*.*.&.&.&.&.%.*.*.*.&.&.&.&.*.n.R.R.Y.U.l.s.l g - @ W.W.W.W.W.W.W.W.W.W.W.W.W.W.W.W.",
"W.W.W.W.W.W.W.W.W.W.W.W.W.W.W.W.W.3 X P 3.1.1.1.1.1.1.1.1.3.1.1.1.*.%.o.o.,.c.M.Y.U.A.V.c h > - % $ W.W.W.W.W.W.W.W.W.W.W.W.W.W.",
"W.W.W.W.W.W.W.W.W.W.W.W.W.W.W.W.W.7 7 H 2.2.4.4.4.4.^ ^ 4.4.2.^ 2.*.%.] ' ' [ v.R.Y.T.G.c g , > = $ $ W.W.W.W.W.W.W.W.W.W.W.W.W.",
"W.W.W.W.W.W.W.W.W.W.W.W.W.W.W.W.W.o o B n.m.-.%.%.%.%.%.%.%.%.$.%.o.o.' ' >.c.L.T.F.p.q.l j d p ; $ $ W.W.W.W.W.W.W.W.W.W.W.W.W.",
"W.W.W.W.W.W.W.W.W.W.W.W.W.W.W.W.W.W.. D Y.K.{ ' ' ' ' ' ' ' ' ' ' ' ' ' ' m.R.R.R.C.k h j j j j , $ $ W.W.W.W.W.W.W.W.W.W.W.W.W.",
"W.W.W.W.W.W.W.W.W.W.W.W.W.W.W.W.W.m A u.I.K.x.z.z.z.z.z.z.z.z.z.z.z.z.z.z.M.R.P.U.l.x h j j j j , $ $ W.W.W.W.W.W.W.W.W.W.W.W.W.",
"W.W.W.W.W.W.W.W.W.W.W.W.W.W.W.$ $ w.Y.Y.Y.Y.I.I.U.U.U.U.I.I.I.I.H.I.I.I.U.U.Y.A.l.d.x j j j j j , $ W.W.W.W.W.W.W.W.W.W.W.W.W.W.",
"W.W.W.W.W.W.W.W.W.W.W.W.W.W.W.$ $ w.E.Y.Y.Y.Y.R.Y.Y.Y.Y.Y.Y.Y.Y.Y.Y.Y.Y.Y.R.R.Z.s.y.c j j j j j 1 $ $ W.W.W.W.W.W.W.W.W.W.W.W.W.",
"W.W.W.W.W.W.W.W.W.W.W.W.W.W.W.# . w.T.Y.Y.Y.Y.Y.Y.Y.Y.Y.Y.Y.Y.T.Y.Y.Y.Y.Y.Y.T.i.x x j j j j j j a ; = $ $ W.W.W.W.W.W.W.W.W.W.W.",
"W.W.W.W.W.W.W.W.W.W.W.W.W.W.W.: : e.R.Y.Y.Y.Y.Y.Y.Y.Y.Y.Y.Y.Y.Y.Y.Y.Y.Y.Y.Y.T.r.h h j j j j j j d 1 = $ $ W.W.W.W.W.W.W.W.W.W.W.",
"W.W.W.W.W.W.W.W.W.W.W.W.W.$ : a.b.F.R.Y.Y.Y.Y.Y.Y.Y.Y.Y.Y.Y.Y.Y.Y.Y.Y.Y.Y.Y.T.t.h j j j j j j j j h 1 $ $ W.W.W.W.W.W.W.W.W.W.W.",
"W.W.W.W.W.W.W.W.W.W.W.W.W.# : V.T.T.Y.Y.Y.Y.Y.Y.Y.Y.Y.Y.Y.Y.Y.Y.R.Y.Y.Y.Y.Y.T.t.h j j j j j j j j j p $ $ W.W.W.W.W.W.W.W.W.W.W.",
"W.W.W.W.W.W.W.W.W.W.W.W.W.$ : l.T.Y.Y.Y.Y.Y.Y.Y.Y.Y.Y.Y.Y.Y.Y.Y.Y.Y.Y.Y.Y.Y.Y.t.h j j j j j j j j j a = = % W.W.W.W.W.W.W.W.W.W.",
"W.W.W.W.W.W.W.W.W.W.W.W.W.$ : l.T.Y.Y.Y.Y.Y.Y.Y.Y.Y.Y.Y.Y.Y.Y.Y.Y.Y.Y.Y.Y.Y.T.t.h j j j j j j j j j a > ; $ $ W.W.W.W.W.W.W.W.W.",
"W.W.W.W.W.W.W.W.W.W.W.W.$ # = u.A.G.Y.Y.Y.Y.Y.Y.T.Y.Y.Y.Y.Y.Y.Y.Y.Y.Y.Y.Y.Y.T.t.h j j j j j j j j j d d 1 $ $ W.W.W.W.W.W.W.W.W.",
"W.W.W.W.W.W.W.W.W.W.W.$ $ $ $ G k.A.R.Y.Y.Y.Y.Y.Y.Y.Y.Y.Y.Y.Y.Y.Y.Y.Y.Y.Y.Y.T.r.h j j j j j j j j j j j p % $ W.W.W.W.W.W.W.W.W.",
"W.W.W.W.W.W.W.W.W.W.$ $ $ $ $ F d.Z.U.Y.Y.Y.Y.Y.Y.Y.Y.Y.Y.Y.Y.Y.Y.Y.Y.Y.Y.Y.P.r.h j j j j j j j j j j j p $ $ W.W.W.W.W.W.W.W.W.",
"W.W.W.W.W.W.W.W.W.W.$ $ $ $ % d l 0.l.A.Y.Y.Y.Y.Y.Y.Y.Y.Y.Y.Y.Y.Y.Y.Y.Y.Y.A.l.8.j j j j j j j j j j j j p % $ W.W.W.W.W.W.W.W.W.",
"W.W.W.W.W.W.W.W.W.W.$ $ $ $ $ p j F s.Z.U.U.U.K.U.H.K.U.U.H.H.U.U.I.U.U.I.A.k.6.j j j j j j j j j j j j p $ $ W.W.W.W.W.W.W.W.W.",
"W.W.W.W.W.W.W.W.W.W.$ $ @ $ $ p j z l 0.l.l.l.l.l.l.l.k.l.l.l.k.l.l.k.l.l.k.k.6.j j j j j j j j j j j j a $ $ W.W.W.W.W.W.W.W.W.",
"W.W.W.W.W.W.W.W.W.W.$ $ $ $ $ p j j h F d.s.s.s.f.k.k.k.k.k.k.k.k.k.k.f.s.s.s.7.j j j j j j j h j j j j p % $ W.W.W.W.W.W.W.W.W.",
"W.W.W.W.W.W.W.W.W.W.$ $ $ $ % p j j j k x x x V d.k.k.k.k.k.k.k.k.k.j.Z l c c j j j j j j j p 1 d j j j p $ $ W.W.W.W.W.W.W.W.W.",
"W.W.W.W.W.W.W.W.W.W.$ $ $ # % p j j j j j h h l d.k.k.k.k.k.k.k.k.k.d.l h j h j j j j j j j , ; d j j j p % $ W.W.W.W.W.W.W.W.W.",
"W.W.W.W.W.W.W.W.W.W.$ $ $ $ $ > p d j j j j j k F 8.6.6.6.6.6.8.6.6.F k j j j j j j j j j d , ; a j j j p $ $ W.W.W.W.W.W.W.W.W.",
"W.W.W.W.W.W.W.W.W.W.$ $ $ $ $ = , p j j j j j j j j h h j j j h h j h j j j j j j j j j j j , : a j j j p % $ W.W.W.W.W.W.W.W.W.",
"W.W.W.W.W.W.W.W.W.W.W.$ $ $ $ = > d j j j j j j j j j j j j j j j j j j j j j j j j j j j j d s a p p p > # $ W.W.W.W.W.W.W.W.W.",
"W.W.W.W.W.W.W.W.W.W.W.W.W.$ $ = > d j j j j j j j j j j j j j j j j j j j j j j j j j j j j j j 1 $ % % $ $ $ W.W.W.W.W.W.W.W.W.",
"W.W.W.W.W.W.W.W.W.W.W.W.W.$ $ = > p j j j j j j j j j j j j j j j j j j j j j j j j j j j j j j 1 $ # $ $ $ $ W.W.W.W.W.W.W.W.W.",
"W.W.W.W.W.W.W.W.W.W.W.W.W.W.W.$ % , j j j j j j j j j j j j j j j j j j j j j j j j j j j j j j , + $ W.W.W.W.W.W.W.W.W.W.W.W.W.",
"W.W.W.W.W.W.W.W.W.W.W.W.W.W.W.$ # > h j j j j j j j j j j j j j j j j j j j j j j j j j j j g g , $ W.W.W.W.W.W.W.W.W.W.W.W.W.W.",
"W.W.W.W.W.W.W.W.W.W.W.W.W.W.W.W.W.% % > j j j j j j j j j j j j j j j j j j j j j j j j j j ; % % W.W.W.W.W.W.W.W.W.W.W.W.W.W.W.",
"W.W.W.W.W.W.W.W.W.W.W.W.W.W.W.W.W.$ $ - d j j j j j j j j j j j j j j j j j j j j j j j j g - $ $ W.W.W.W.W.W.W.W.W.W.W.W.W.W.W.",
"W.W.W.W.W.W.W.W.W.W.W.W.W.W.W.W.W.W.$ = - > j j j j j j j j j j j j j j j j j j j j j h ; - & $ W.W.W.W.W.W.W.W.W.W.W.W.W.W.W.W.",
"W.W.W.W.W.W.W.W.W.W.W.W.W.W.W.W.W.W.W.W.$ - j j j j j j j j j j j j j j j j j j j j j g % # W.W.W.W.W.W.W.W.W.W.W.W.W.W.W.W.W.W.",
"W.W.W.W.W.W.W.W.W.W.W.W.W.W.W.W.W.W.W.O O 2 , , , 1 , , 1 1 , , p p d p p p p p g p p p 2 X o W.W.W.W.W.W.W.W.W.W.W.W.W.W.W.W.W.",
"W.W.W.W.W.W.W.W.W.W.W.W.W.W.W.W.W.W.W.W.7 7 . + + # $ @ $ $ $ # # > > ; > > > > > > > > 6 7 W.W.W.W.W.W.W.W.W.W.W.W.W.W.W.W.W.W.",
"W.W.W.W.W.W.W.W.W.W.W.W.W.W.W.W.W.W.7 t I K u i 3 2 * # $ $ $ $ * 2 5 N M M M M M M M M I L w 7 W.W.W.W.W.W.W.W.W.W.W.W.W.W.W.W.",
"W.W.W.W.W.W.W.W.W.W.W.W.W.W.W.W.W.7 7 Y { { { _ w 7 6 W.W.W.W.W.W.7 0  .2.2.2.2.2.2.2.2.4.3.L 7 7 W.W.W.W.W.W.W.W.W.W.W.W.W.W.W.",
"W.W.W.W.W.W.W.W.W.W.W.W.W.W.W.W.W.9 9 U { ' ( / w 7 W.W.W.W.W.W.W.7 w  .1.2.4.4.4.2.4.2.4.4.H 0 q 7 W.W.W.W.W.W.W.W.W.W.W.W.W.W.",
"W.W.W.W.W.W.W.W.W.W.W.W.W.W.W.7 6 K _ ` ' _ i 9 W.W.W.W.W.W.W.W.W.7 w ( X.1.^ ~ 4.4.4.4.4.4.! *.J 7 7 W.W.W.W.W.W.W.W.W.W.W.W.W.",
"W.W.W.W.W.W.W.W.W.W.W.W.W.W.W.9 w U ' ' ' ( 9 7 W.W.W.W.W.W.W.W.W.7 w / _ %.2.2.3.2.4.4.4.4.4.4.H 7 7 W.W.W.W.W.W.W.W.W.W.W.W.W.",
"W.W.W.W.W.W.W.W.W.W.W.W.W.7 6 K ( _ ' ' ' ( w 7 W.W.W.W.W.W.W.W.W.W.W.w 9 T X.X.X.o.4.4.4.4.4.4.H 7 7 W.W.W.W.W.W.W.W.W.W.W.W.W.",
"W.W.W.W.W.W.W.W.W.W.W.W.W.w 9 U { ] ] { { ) w 7 W.W.W.W.W.W.W.W.W.W.W.7 7 I { { ] o.2.~ 4.2.2.2.H 7 7 W.W.W.W.W.W.W.W.W.W.W.W.W.",
"W.W.W.W.W.W.W.W.W.W.W.8 w R W %.1.1.1.O.U y 7 W.W.W.W.W.W.W.W.W.W.W.W.W.7 i I L L U O.o.o.$.o.$.I 7 7 W.W.W.W.W.W.W.W.W.W.W.W.W.",
"W.W.W.W.W.W.W.W.W.W.7 7 w Q 5.5.5.5.5...q 7 W.W.W.W.W.W.W.W.W.W.W.W.W.W.W.7 7 7 7 9 ( { ' { ' { I 7 7 W.W.W.W.W.W.W.W.W.W.W.W.W.",
"W.W.W.W.W.W.W.W.W.W.W.7 w H R R R R R J q W.W.W.W.W.W.W.W.W.W.W.W.W.W.W.W.W.7 7 W.9 K Y Y Y I I t 7 W.W.W.W.W.W.W.W.W.W.W.W.W.W.",
"W.W.W.W.W.W.W.W.W.W.W.W.W.7 7 6 7 7 7 7 W.W.W.W.W.W.W.W.W.W.W.W.W.W.W.W.W.W.W.W.W.W.7 7 7 7 7 7 W.W.W.W.W.W.W.W.W.W.W.W.W.W.W.W.",
"W.W.W.W.W.W.W.W.W.W.W.W.W.7 7 7 7 7 7 7 W.W.W.W.W.W.W.W.W.W.W.W.W.W.W.W.W.W.W.W.W.W.7 7 7 7 7 7 W.W.W.W.W.W.W.W.W.W.W.W.W.W.W.W.",
"W.W.W.W.W.W.W.W.W.W.W.W.W.W.W.W.W.W.W.W.W.W.W.W.W.W.W.W.W.W.W.W.W.W.W.W.W.W.W.W.W.W.W.W.W.W.W.W.W.W.W.W.W.W.W.W.W.W.W.W.W.W.W.W.",
"W.W.W.W.W.W.W.W.W.W.W.W.W.W.  W.W.W.W.W.                                          W.W.W.W.W.W.W.W.  W.W.W.W.W.W.W.W.W.W.W.W.W.W.",
"W.W.W.W.W.W.W.W.W.W.W.W.W.                                                                            W.W.W.W.W.W.W.W.W.W.W.W.W.",
"W.W.W.W.W.W.W.W.W.W.W.W.W.                                                                            W.W.W.W.W.W.W.W.W.W.W.W.W."
};
