/* XPM */
static char *result[] = {
/* columns rows colors chars-per-pixel */
"64 64 162 2 ",
"   c black",
".  c #2A271E",
"X  c #2C281F",
"o  c #051622",
"O  c #071823",
"+  c #091924",
"@  c #0C1D29",
"#  c #0E202C",
"$  c #10232F",
"%  c #1C252A",
"&  c #122532",
"*  c #152936",
"=  c #1B2A34",
"-  c #152B39",
";  c #192E3C",
":  c #1D313F",
">  c #2B2D2C",
",  c #292824",
"<  c #2F302D",
"1  c #3A3124",
"2  c #252F36",
"3  c #2B3336",
"4  c #2F373C",
"5  c #2E393F",
"6  c #3A3C36",
"7  c #4B3417",
"8  c #4B3519",
"9  c #563D1C",
"0  c #593F1E",
"q  c #5B421E",
"w  c #57401C",
"e  c #564F3F",
"r  c #694B24",
"t  c #725F37",
"y  c #6B5739",
"u  c #7D643A",
"i  c #76643D",
"p  c #1E3645",
"a  c #203644",
"s  c #213847",
"d  c #293B47",
"f  c #243D4D",
"g  c #263F50",
"h  c #274152",
"j  c #2A4455",
"k  c #364E5E",
"l  c #384F5F",
"z  c #39505F",
"x  c #3D5463",
"c  c #5E5644",
"v  c #444B50",
"b  c #46535C",
"n  c #7A6945",
"m  c #465B69",
"M  c #555F65",
"N  c #4C606E",
"B  c #5E676C",
"V  c #566874",
"C  c #636C72",
"Z  c #66747E",
"A  c #6A777E",
"S  c #757576",
"D  c #75797C",
"F  c #81612A",
"G  c #92732D",
"H  c #8C6532",
"J  c #8E6934",
"K  c #83643C",
"L  c #926A33",
"P  c #996E37",
"I  c #987634",
"U  c #806F52",
"Y  c #827251",
"T  c #BA903E",
"R  c #E1BE3D",
"E  c #E2C03D",
"W  c #EBC73F",
"Q  c #F4D13F",
"!  c #BB8644",
"~  c #B4995A",
"^  c #B49B62",
"/  c #A3927A",
"(  c #BA9F7D",
")  c #C78F48",
"_  c #C88F49",
"`  c #CA9249",
"'  c #C79A43",
"]  c #D4974A",
"[  c #D79B4D",
"{  c #DA9D4E",
"}  c #D79D52",
"|  c #DEAA4A",
" . c #D9A847",
".. c #DCB440",
"X. c #D7A25E",
"o. c #DCAD5C",
"O. c #DBA657",
"+. c #DFB05A",
"@. c #E0AC4A",
"#. c #E4B646",
"$. c #E6B945",
"%. c #E9BB45",
"&. c #E1B048",
"*. c #E6BE57",
"=. c #E5BC58",
"-. c #DDAF60",
";. c #DFB46A",
":. c #CBAA7F",
">. c #CDB77D",
",. c #E2BC70",
"<. c #ECC344",
"1. c #EECA4B",
"2. c #F4CD42",
"3. c #F1C743",
"4. c #F4D140",
"5. c #EAC558",
"6. c #F2D352",
"7. c #6F7C84",
"8. c #697780",
"9. c #717E87",
"0. c #748189",
"q. c #7B868E",
"w. c #7D8A92",
"e. c #808C93",
"r. c #87949D",
"t. c #8A959D",
"y. c #96999A",
"u. c #979CA0",
"i. c #9EA1A3",
"p. c #A4A7A9",
"a. c #A6A9AA",
"s. c #AAACAE",
"d. c #ACAEB0",
"f. c #ACB1B4",
"g. c #B3B3B3",
"h. c #BBBBBB",
"j. c #C8AD81",
"k. c #DFBF8F",
"l. c #CDB291",
"z. c #DDBE95",
"x. c #E5CF95",
"c. c #E6D098",
"v. c #DEC3A2",
"b. c #D9C8B0",
"n. c #BBBDC0",
"m. c #C2C4C4",
"M. c #CCCCCC",
"N. c #CED0D2",
"B. c #D2D4D5",
"V. c #DCDCDD",
"C. c #DBDAD5",
"Z. c #E2DCD4",
"A. c #E1DEDA",
"S. c #E5E1D4",
"D. c #E3E0DB",
"F. c #DFDFE0",
"G. c #DFE0E2",
"H. c #E4E4E4",
"J. c #E5E6E8",
"K. c #E9E8EA",
"L. c #E8E7E7",
"P. c None",
/* pixels */
"P.P.P.P.P.P.P.P.P.P.P.P.P.P.P.P.P.P.P.P.P.P.P.P.P.P.P.P.P.P.P.P.P.P.P.P.P.P.P.P.P.P.P.P.P.P.P.P.P.P.P.P.P.P.P.P.P.P.P.P.P.P.P.P.",
"P.P.P.P.P.P.P.P.P.P.P.P.P.P.P.P.P.P.P.P.P.P.P.P.P.P.P.P.P.P.P.P.P.P.P.P.P.P.P.P.P.P.P.P.P.P.P.P.P.P.P.P.P.P.P.P.P.P.P.P.P.P.P.P.",
"P.P.P.P.P.P.P.P.P.P.P.P.P.P.P.P.P.P.P.P.P.P.P.P.P.P.P.P.+ + + + + + + + + + + P.P.P.P.P.P.P.P.P.P.P.P.P.P.P.P.P.P.P.P.P.P.P.P.P.",
"P.P.P.P.P.P.P.P.P.P.P.P.P.P.P.P.P.P.P.P.P.P.P.P.P.P.P.P.O O + + + O O O + + + P.P.P.P.P.P.P.P.P.P.P.P.P.P.P.P.P.P.P.P.P.P.P.P.P.",
"P.P.P.P.P.P.P.P.P.P.P.P.P.P.P.P.P.P.P.P.P.P.P.P.+ + P.@ ; ; ; ; ; ; p ; ; & $ + + P.P.P.P.P.P.P.P.P.P.P.P.P.P.P.P.P.P.P.P.P.P.P.",
"P.P.P.P.P.P.P.P.P.P.P.P.P.P.P.P.P.P.P.P.P.P.P.O O + + @ h j j h j h g j g - & + + + P.P.P.P.P.P.P.P.P.P.P.P.P.P.P.P.P.P.P.P.P.P.",
"P.P.P.P.P.P.P.P.P.P.P.P.P.P.P.P.P.P.P.P.P.P.O = d d & & h j z x V 0.0.0.9.A C p & @ + P.P.P.P.P.P.P.P.P.P.P.P.P.P.P.P.P.P.P.P.P.",
"P.P.P.P.P.P.P.P.P.P.P.P.P.P.P.P.P.P.P.P.P.O o M s.y.k g h l y.a.m.H.A.H.D.H.N.x f & + + P.P.P.P.P.P.P.P.P.P.P.P.P.P.P.P.P.P.P.P.",
"P.P.P.P.P.P.P.P.P.P.P.P.P.P.P.P.P.P.P.P.P.5 4 D h.d.N x x N s.h.N.H.H.H.H.H.B.N z : @ @ P.P.P.P.P.P.P.P.P.P.P.P.P.P.P.P.P.P.P.P.",
"P.P.P.P.P.P.P.P.P.P.P.P.P.P.P.P.P.P.P.O + e.B.C.F.F.B.B.B.B.V.F.H.H.H.H.H.J.V.s.a.Z f ; + + P.P.P.P.P.P.P.P.P.P.P.P.P.P.P.P.P.P.",
"P.P.P.P.P.P.P.P.P.P.P.P.P.P.P.P.P.P.P.- = t.D.H.S.S.Z.S.S.S.S.S.H.J.H.F.H.H.D.h.h.9.j ; + @ P.P.P.P.P.P.P.P.P.P.P.P.P.P.P.P.P.P.",
"P.P.P.P.P.P.P.P.P.P.P.P.P.P.P.P.P.O = i.h.t.S / -.o.=.5.=.=.+.o.b.J.d.S y.H.H.F.V.0.h f p ; + + P.P.P.P.P.P.P.P.P.P.P.P.P.P.P.P.",
"P.P.P.P.P.P.P.P.P.P.P.P.P.P.P.P.P.O = n.J.S > K { { #.$.$.#.{ ] z.K.t.> S H.H.J.H.9.g j j p + + P.P.P.P.P.P.P.P.P.P.P.P.P.P.P.P.",
"P.P.P.P.P.P.P.P.P.P.P.P.P.P.P.P.P.O % j.x.~ G ! | &.$.$.$.$.&.| ,.c.>.I ^ D.H.H.H.p.9.m j s & # + P.P.P.P.P.P.P.P.P.P.P.P.P.P.P.",
"P.P.P.P.P.P.P.P.P.P.P.P.P.P.P.P.P.o % ' %.%.%.$.$.%.$.$.$.$.$.$.$.$.$.%.5.S.H.H.H.M.g.7.h s - - @ + P.P.P.P.P.P.P.P.P.P.P.P.P.P.",
"P.P.P.P.P.P.P.P.P.P.P.P.P.P.P.O > y i ..3.<.3.<.<.<.<.<.3.<.<.<.%.$.&.| O.k.v.D.H.C.M.w.h g s p @ + P.P.P.P.P.P.P.P.P.P.P.P.P.P.",
"P.P.P.P.P.P.P.P.P.P.P.P.P.P.+ O < ` @.%.Q Q 4.4.Q Q Q Q 4.4.Q 4.<.$.| [ [ ] X.Z.H.H.K.r.h j j h @ O P.P.P.P.P.P.P.P.P.P.P.P.P.P.",
"P.P.P.P.P.P.P.P.P.P.P.P.P.P.+ O 3 ( j.5.6.1.%.<.<.<.<.%.<.<.<.<.$.#. .[ } :.l.V.J.J.L.t.h j j h @ @ + P.P.P.P.P.P.P.P.P.P.P.P.P.",
"P.P.P.P.P.P.P.P.P.P.P.P.P.P.P.O 4 M.A.S.Z.k.{ { [ [ [ [ [ { [ [ [ [ [ [ O.Z.G.H.H.H.K.t.h j j j ; - + + P.P.P.P.P.P.P.P.P.P.P.P.",
"P.P.P.P.P.P.P.P.P.P.P.P.P.P.= = v B.J.J.J.c.X.X.X.X.X.X.X.X.X.X.X.X.X.X.;.S.H.H.H.C.B.w.h j j j ; - @ + + P.P.P.P.P.P.P.P.P.P.P.",
"P.P.P.P.P.P.P.P.P.P.P.P.P.o B M.B.H.H.H.H.A.Z.Z.Z.Z.Z.Z.Z.Z.Z.Z.Z.Z.Z.Z.A.H.H.J.H.w.x k j j j j h f $ + P.P.P.P.P.P.P.P.P.P.P.P.",
"P.P.P.P.P.P.P.P.P.P.P.P.+ O C H.H.H.H.H.H.H.H.J.J.J.H.J.H.J.H.H.L.H.H.J.H.H.H.D.C.9.h j j j j j j j & + + P.P.P.P.P.P.P.P.P.P.P.",
"P.P.P.P.P.P.P.P.P.P.P.P.+ O C D.H.H.H.H.H.H.H.H.H.H.H.H.H.H.H.H.H.H.H.H.H.H.F.h.h.9.h j j j j j j h ; * # + P.P.P.P.P.P.P.P.P.P.",
"P.P.P.P.P.P.P.P.P.P.P.P.P.o C H.H.H.H.H.H.H.H.H.H.H.H.H.H.H.H.H.H.H.H.H.H.H.F.h.g.8.h j j j j j j h ; ; $ + + P.P.P.P.P.P.P.P.P.",
"P.P.P.P.P.P.P.P.P.P.P.P.+ O b m.N.F.H.H.H.H.H.H.H.H.H.H.H.H.H.H.H.H.H.H.H.H.C.q.8.k j j j j j j j j d a $ + + P.P.P.P.P.P.P.P.P.",
"P.P.P.P.P.P.P.P.P.P.+ + + O d p.h.F.L.H.H.H.H.H.L.H.L.H.H.H.H.L.H.L.H.H.H.L.B.x h j j j j j j j j j j j & + + P.P.P.P.P.P.P.P.P.",
"P.P.P.P.P.P.P.P.P.P.+ + + O 2 A q.m.M.M.M.M.M.M.M.M.M.M.M.M.M.M.M.M.M.M.M.M.h.x j j j j j j j j j j j h & + + P.P.P.P.P.P.P.P.P.",
"P.P.P.P.P.P.P.P.P.P.+ + + O * g k a.g.g.g.g.g.g.g.g.g.g.g.g.g.g.g.g.g.g.g.g.i.x j j j j j j j j j j j h & O P.P.P.P.P.P.P.P.P.P.",
"P.P.P.P.P.P.P.P.P.+ + + + + & j k y.a.g.g.g.g.g.g.g.g.g.g.g.g.g.g.g.g.g.g.a.u.k j j j j j j j j j j j j : & $ P.P.P.P.P.P.P.P.P.",
"P.P.P.P.P.P.P.P.+ + $ - $ + $ h j k m a.g.g.g.g.g.g.g.g.g.g.g.g.g.g.g.g.a.m x j j j j j j j j j j j j j j j ; O + P.P.P.P.P.P.P.",
"P.P.P.P.P.P.P.P.+ + $ - $ O $ h j j l u.a.a.p.p.p.p.p.p.a.a.p.p.a.a.p.p.u.k h j j j j j j j j j j j j j j j ; O + P.P.P.P.P.P.P.",
"P.P.P.P.P.P.P.P.+ + $ ; $ O & j j j j l z z z z l l l l z z z z k x k x k j j j j j j j j j j j j j j j j j ; + + P.P.P.P.P.P.P.",
"P.P.P.P.P.P.P.P.+ + $ ; $ + $ j j j j j j j j j j j j j j j j j j h j j j j j j j j j j j j g j j j j j j j p + + P.P.P.P.P.P.P.",
"P.P.P.P.P.P.P.P.+ o $ ; $ + & h j j j j j j j j j j j j j j j j j j j j j j j j j j j j j g ; a j j j j j j ; + + P.P.P.P.P.P.P.",
"P.P.P.P.P.P.P.P.+ + $ ; $ + & h j j j j j j j j j j j j j j j j j j j j j j j j j j j j j s ; ; g j j j j j ; + + P.P.P.P.P.P.P.",
"P.P.P.P.P.P.P.P.P.+ @ $ @ + & h j j j j j j j j j j j j j j j j j j j j j j j j j j j j j s - ; j j j j a ; & P.P.P.P.P.P.P.P.P.",
"P.P.P.P.P.P.P.P.P.P.+ + + + & h j j j j j j j j j j j j j j j j j j j j j j j j j j j j j s - ; g j j g & O P.P.P.P.P.P.P.P.P.P.",
"P.P.P.P.P.P.P.P.P.P.+ + + + $ s g j j j j j j j j j j j j j j j j j j j j j j j j j j j j g s s s d p p # + + P.P.P.P.P.P.P.P.P.",
"P.P.P.P.P.P.P.P.P.P.P.P.+ + + - ; h j j j j j j j j j j j j j j j j j j j j j j j j j j j j j j ; - @ + + + + P.P.P.P.P.P.P.P.P.",
"P.P.P.P.P.P.P.P.P.P.P.P.P.+ + - ; h j j j j j j j j j j j j j j j j j j j j j j j j j j j j j j ; & @ + + + P.P.P.P.P.P.P.P.P.P.",
"P.P.P.P.P.P.P.P.P.P.P.P.P.P.+ + # h j j j j j j j j j j j j j j j j j j j j j j j j j j j j j g $ + P.P.P.P.P.P.P.P.P.P.P.P.P.P.",
"P.P.P.P.P.P.P.P.P.P.P.P.P.P.P.+ @ s h j j j j j j j j j j j j j j j j j j j j j j j j j j j j g @ + P.P.P.P.P.P.P.P.P.P.P.P.P.P.",
"P.P.P.P.P.P.P.P.P.P.P.P.P.P.P.P.P.@ # s j j j j j j j j j j j j j j j j j j j j j j j j j j j g @ + P.P.P.P.P.P.P.P.P.P.P.P.P.P.",
"P.P.P.P.P.P.P.P.P.P.P.P.P.P.P.P.P.@ @ p j j j j j j j j j k j j j j j j j j j j j j j j j j g g @ + P.P.P.P.P.P.P.P.P.P.P.P.P.P.",
"P.P.P.P.P.P.P.P.P.P.P.P.P.P.P.P.P.1 1 2 : f j j j j j j j j j j j j j j j j j j j j j j j g & & + P.P.P.P.P.P.P.P.P.P.P.P.P.P.P.",
"P.P.P.P.P.P.P.P.P.P.P.P.P.P.P.P.P.8 8 2 = s j j j j j j j j j j j j j j j j j j j j j h j p + o P.P.P.P.P.P.P.P.P.P.P.P.P.P.P.P.",
"P.P.P.P.P.P.P.P.P.P.P.P.P.P.P.7 0 H J J H e p h j j j j j j j j j j j j j j j j j g p p p = , . P.P.P.P.P.P.P.P.P.P.P.P.P.P.P.P.",
"P.P.P.P.P.P.P.P.P.P.P.P.P.P.7 8 0 ` { } { n * s j j j j j j j j j j j j j j j j j f p O o # 8 8 P.P.P.P.P.P.P.P.P.P.P.P.P.P.P.P.",
"P.P.P.P.P.P.P.P.P.P.P.P.P.8 9 H P ` { } [ K < 3 a a a a p p p p 4 6 c U U U Y Y Y n n i i u L J q P.P.P.P.P.P.P.P.P.P.P.P.P.P.P.",
"P.P.P.P.P.P.P.P.P.P.P.P.8 7 0 _ { [ } [ { J 8 . + + + @ @ + + @ , 8 P { { { | 3.4.2.2.2.Q 2.4...q 8 P.P.P.P.P.P.P.P.P.P.P.P.P.P.",
"P.P.P.P.P.P.P.P.P.P.P.P.w q F  .| | @.] _ J 8 . + + + + + + + + . 7 J _ _ _ ` %.<.<.%.<.<.%.<. .q 8 P.P.P.P.P.P.P.P.P.P.P.P.P.P.",
"P.P.P.P.P.P.P.P.P.P.8 7 G R W 2.2.4.2.P 0 0 P.P.P.P.P.P.P.P.P.P.P.P.0 0 0 0 r ` { {  .{ { { { _ q 8 P.P.P.P.P.P.P.P.P.P.P.P.P.P.",
"P.P.P.P.P.P.P.P.P.P.8 8 G E E E E E E G 8 P.P.P.P.P.P.P.P.P.P.P.P.P.P.8 8 8 0 ! ` _ _ _ _ _ _ ! q 8 P.P.P.P.P.P.P.P.P.P.P.P.P.P.",
"P.P.P.P.P.P.P.P.P.P.8 8 9 q r q q q q q P.P.P.P.P.P.P.P.P.P.P.P.P.P.P.P.P.P.P.q q q q 0 q q q q P.P.P.P.P.P.P.P.P.P.P.P.P.P.P.P.",
"P.P.P.P.P.P.P.P.P.P.8 8 8 8 7 7 8 8 8 P.P.P.P.P.P.P.P.P.P.P.P.P.P.P.P.P.P.P.P.8 8 8 8 8 8 8 8 8 P.P.P.P.P.P.P.P.P.P.P.P.P.P.P.P.",
"P.P.P.P.P.P.P.P.P.P.P.8 8 8 7 7 8 8 P.P.P.P.P.P.P.P.P.P.P.P.P.P.P.P.P.P.P.P.P.P.8 8 8 8 8 8 8 P.P.P.P.P.P.P.P.P.P.P.P.P.P.P.P.P.",
"P.P.P.P.P.P.P.P.P.P.P.P.P.P.P.P.P.P.P.P.P.P.P.P.P.P.P.P.P.P.P.P.P.P.P.P.P.P.P.P.P.P.P.P.P.P.P.P.P.P.P.P.P.P.P.P.P.P.P.P.P.P.P.P.",
"P.P.P.P.P.P.P.P.P.P.P.P.P.P.P.P.P.P.P.P.P.P.P.P.P.P.P.P.P.P.P.P.P.P.P.P.P.P.P.P.P.P.P.P.P.P.P.P.P.P.P.P.P.P.P.P.P.P.P.P.P.P.P.P.",
"P.P.P.P.P.P.P.P.P.P.P.P.P.P.P.P.P.P.P.P.P.P.P.P.P.P.P.P.P.P.P.P.P.P.P.P.P.P.P.P.P.P.P.P.P.P.P.P.P.P.P.P.P.P.P.P.P.P.P.P.P.P.P.P.",
"P.P.P.P.P.P.P.P.P.P.P.P.P.P.P.P.P.P.P.P.P.P.P.P.P.P.P.P.P.P.P.P.P.P.P.P.P.P.P.P.P.P.P.P.P.P.P.P.P.P.P.P.P.P.P.P.P.P.P.P.P.P.P.P.",
"P.P.P.P.P.P.P.P.P.P.P.P.P.P.P.P.P.P.P.P.P.P.P.P.P.P.P.P.P.P.P.P.P.P.P.P.P.P.P.P.P.P.P.P.P.P.P.P.P.P.P.P.P.P.P.P.P.P.P.P.P.P.P.P.",
"P.P.P.P.P.P.P.P.P.P.P.P.P.P.P.P.                                                              P.P.P.P.P.P.P.P.P.P.P.P.P.P.P.P.P.",
"P.P.P.P.P.P.P.P.P.P.P.P.P.P.P.                                                                  P.P.P.P.P.P.P.P.P.P.P.P.P.P.P.P.",
"P.P.P.P.P.P.P.P.P.P.P.P.P.P.                                                                    P.P.P.P.P.P.P.P.P.P.P.P.P.P.P.P."
};
