/* XPM */
static char *result[] = {
/* columns rows colors chars-per-pixel */
"64 64 168 2 ",
"   c black",
".  c #03131F",
"X  c #2A271E",
"o  c #2B281F",
"O  c #061622",
"+  c #071824",
"@  c #091924",
"#  c #0C1D29",
"$  c #0F212D",
"%  c #10232F",
"&  c #1E2629",
"*  c #122532",
"=  c #152A36",
"-  c #1A2832",
";  c #162C39",
":  c #192E3C",
">  c #1B313F",
",  c #262B2B",
"<  c #252726",
"1  c #2F302E",
"2  c #3B3325",
"3  c #3F3B2F",
"4  c #33332D",
"5  c #2C373B",
"6  c #2E393D",
"7  c #373A3C",
"8  c #373834",
"9  c #4B3519",
"0  c #4A361A",
"q  c #563E1D",
"w  c #583F1E",
"e  c #513E25",
"r  c #5C421E",
"t  c #5A4527",
"y  c #4C4C3B",
"u  c #514632",
"i  c #6B4F23",
"p  c #7B5A2A",
"a  c #1F3544",
"s  c #203644",
"d  c #223847",
"f  c #233B4A",
"g  c #2B3E4A",
"h  c #253F50",
"j  c #2F414C",
"k  c #274152",
"l  c #2A4455",
"z  c #344C5C",
"x  c #374C58",
"c  c #39505F",
"v  c #3A4649",
"b  c #3C5362",
"n  c #424D54",
"m  c #6D5F44",
"M  c #735F41",
"N  c #78694E",
"B  c #776A52",
"V  c #495A65",
"C  c #4C606E",
"Z  c #5C656B",
"A  c #5A6A75",
"S  c #636B71",
"D  c #67747E",
"F  c #7E7E7F",
"G  c #91722D",
"H  c #8E6936",
"J  c #926A33",
"K  c #9B7930",
"L  c #876C4B",
"P  c #84704F",
"I  c #8A7451",
"U  c #837E73",
"Y  c #CCA839",
"T  c #DDB73E",
"R  c #DFBA3C",
"E  c #E2BF3B",
"W  c #E3C03B",
"Q  c #F4D03E",
"!  c #BB8643",
"~  c #B28347",
"^  c #C58F4A",
"/  c #C88F48",
"(  c #CB9247",
")  c #C5914D",
"_  c #CB934A",
"`  c #CB9E45",
"'  c #D69748",
"]  c #D5994C",
"[  c #D99D4E",
"{  c #C69F52",
"}  c #D39C58",
"|  c #D2AA43",
" . c #DAA04C",
".. c #DEAB4A",
"X. c #DCB243",
"o. c #DBB44D",
"O. c #D6A25A",
"+. c #DAA657",
"@. c #DAB65B",
"#. c #E1AC4B",
"$. c #E5B547",
"%. c #E6BA45",
"&. c #E8BC45",
"*. c #E2B048",
"=. c #E5BA4F",
"-. c #E6BE57",
";. c #E5BC58",
":. c #CCAB7F",
">. c #ECC443",
",. c #EFCA41",
"<. c #F2CD42",
"1. c #F0C744",
"2. c #F4D140",
"3. c #E8C86D",
"4. c #6F7C84",
"5. c #737D84",
"6. c #727F88",
"7. c #758189",
"8. c #7C878F",
"9. c #7C8991",
"0. c #818587",
"q. c #92968F",
"w. c #86939C",
"e. c #8C979E",
"r. c #959B9F",
"t. c #8E9AA2",
"y. c #979CA0",
"u. c #A3A6A9",
"i. c #A6A8AA",
"p. c #ABADAF",
"a. c #ACAEB0",
"s. c #ACB2B7",
"d. c #B4B4B4",
"f. c #B9B9B9",
"g. c #BBB8B0",
"h. c #CBB08E",
"j. c #DEBE8F",
"k. c #CDB291",
"l. c #DDBF99",
"z. c #DDBD90",
"x. c #DFC299",
"c. c #EAD794",
"v. c #DEC3A2",
"b. c #C6C3BF",
"n. c #E1C9A0",
"m. c #E1D2BF",
"M. c #C4C5C6",
"N. c #CECDCD",
"B. c #CFC9C0",
"V. c #D1CAC2",
"C. c #D9D3CA",
"Z. c #CBCED0",
"A. c #D2D3D5",
"S. c #DEDEDE",
"D. c #DBDAD5",
"F. c #E4DFD3",
"G. c #E1DEDC",
"H. c #E5E1D5",
"J. c #E2E1DD",
"K. c #E8E3D8",
"L. c #DFE0E2",
"P. c #E4E4E4",
"I. c #E8E7E7",
"U. c #E6E7E8",
"Y. c #E8E7E8",
"T. c #EAE9EA",
"R. c #E8E8E7",
"E. c None",
/* pixels */
"E.E.E.E.E.E.E.E.E.E.E.E.E.E.E.E.E.E.E.E.E.E.E.E.E.E.E.E.E.E.E.E.E.E.E.E.E.E.E.E.E.E.E.E.E.E.E.E.E.E.E.E.E.E.E.E.E.E.E.E.E.E.E.E.",
"E.E.E.E.E.E.E.E.E.E.E.E.E.E.E.E.E.E.E.E.E.E.E.E.E.E.E.E.E.E.E.E.E.E.E.E.E.E.E.E.E.E.E.E.E.E.E.E.E.E.E.E.E.E.E.E.E.E.E.E.E.E.E.E.",
"E.E.E.E.E.E.E.E.E.E.E.E.E.E.E.E.E.E.E.E.E.E.E.E.E.E.E.E.E.E.E.E.E.E.E.E.E.E.E.E.E.E.E.E.E.E.E.E.E.E.E.E.E.E.E.E.E.E.E.E.E.E.E.E.",
"E.E.E.E.E.E.E.E.E.E.E.E.E.E.E.E.E.E.E.E.E.E.E.E.E.E.E.E.E.E.E.E.E.E.E.E.E.E.E.E.E.E.E.E.E.E.E.E.E.E.E.E.E.E.E.E.E.E.E.E.E.E.E.E.",
"E.E.E.E.E.E.E.E.E.E.E.E.E.E.E.E.E.E.E.E.E.E.E.E.E.E.E.E.E.E.E.E.E.E.E.E.E.E.E.E.E.E.E.E.E.E.E.E.E.E.E.E.E.E.E.E.E.E.E.E.E.E.E.E.",
"E.E.E.E.E.E.E.E.E.E.E.E.E.E.E.E.E.E.E.E.E.E.E.E.E.E.E.E.E.E.E.E.E.E.E.E.E.E.E.E.E.E.E.E.E.E.E.E.E.E.E.E.E.E.E.E.E.E.E.E.E.E.E.E.",
"E.E.E.E.E.E.E.E.E.E.E.E.E.E.E.E.E.E.E.E.E.E.E.E.E.E.E.E.E.E.E.E.E.E.E.E.E.E.E.E.E.E.E.E.E.E.E.E.E.E.E.E.E.E.E.E.E.E.E.E.E.E.E.E.",
"E.E.E.E.E.E.E.E.E.E.E.E.E.E.E.E.E.E.E.E.E.E.E.E.E.E.E.E.E.E.E.E.E.E.E.E.E.E.E.E.E.E.E.E.E.E.E.E.E.E.E.E.E.E.E.E.E.E.E.E.E.E.E.E.",
"E.E.E.E.E.E.E.E.E.E.E.E.E.E.E.E.E.E.E.E.E.E.E.E.E.E.E.E.E.E.E.E.E.E.E.E.E.E.E.E.E.E.E.E.E.E.E.E.E.E.E.E.E.E.E.E.E.E.E.E.E.E.E.E.",
"E.E.E.E.E.E.E.E.E.E.E.E.E.E.E.E.E.E.E.E.E.E.E.E.E.E.E.E.@ @ @ @ @ @ @ @ + @ @ E.E.E.E.E.E.E.E.E.E.E.E.E.E.E.E.E.E.E.E.E.E.E.E.E.",
"E.E.E.E.E.E.E.E.E.E.E.E.E.E.E.E.E.E.E.E.E.E.E.E.E.E.E.E.# @ + + # @ @ @ @ @ @ E.E.E.E.E.E.E.E.E.E.E.E.E.E.E.E.E.E.E.E.E.E.E.E.E.",
"E.E.E.E.E.E.E.E.E.E.E.E.E.E.E.E.E.E.E.E.E.E.E.E.@ @ @ # a a a a a a a d a ; = @ @ E.E.E.E.E.E.E.E.E.E.E.E.E.E.E.E.E.E.E.E.E.E.E.",
"E.E.E.E.E.E.E.E.E.E.E.E.E.E.E.E.E.E.E.E.E.E.E.E.# + @ $ g l l h k k k k h ; = # @ E.E.E.E.E.E.E.E.E.E.E.E.E.E.E.E.E.E.E.E.E.E.E.",
"E.E.E.E.E.E.E.E.E.E.E.E.E.E.E.E.E.E.E.E.E.E.O V 4.S g a k z 4.4.9.w.t.w.w.w.9.j a = @ E.E.E.E.E.E.E.E.E.E.E.E.E.E.E.E.E.E.E.E.E.",
"E.E.E.E.E.E.E.E.E.E.E.E.E.E.E.E.E.E.E.E.E.O O Z d.u.c k k c i.d.N.Y.Y.Y.U.Y.A.b k % + + E.E.E.E.E.E.E.E.E.E.E.E.E.E.E.E.E.E.E.E.",
"E.E.E.E.E.E.E.E.E.E.E.E.E.E.E.E.E.E.E.E.E.A 5.u.Z.M.t.t.w.e.M.N.D.P.P.P.P.P.S.8.D g : = E.E.E.E.E.E.E.E.E.E.E.E.E.E.E.E.E.E.E.E.",
"E.E.E.E.E.E.E.E.E.E.E.E.E.E.E.E.E.E.E.O + w.T.Y.U.U.Y.T.Y.U.R.I.P.P.P.Y.P.P.P.f.d.4.l : @ @ E.E.E.E.E.E.E.E.E.E.E.E.E.E.E.E.E.E.",
"E.E.E.E.E.E.E.E.E.E.E.E.E.E.E.E.E.E.- Z S y.f.b.V.C.F.F.F.F.C.b.J.P.A.f.M.P.S.f.f.4.k a % * @ E.E.E.E.E.E.E.E.E.E.E.E.E.E.E.E.E.",
"E.E.E.E.E.E.E.E.E.E.E.E.E.E.E.E.E.+ - f.J.F 7 L } O.@.>.-.;.O.} v.T.e.7 F P.P.J.S.6.k k k a # @ E.E.E.E.E.E.E.E.E.E.E.E.E.E.E.E.",
"E.E.E.E.E.E.E.E.E.E.E.E.E.E.E.E.E.@ - g.H.F e L [  .=.%.%.$. .[ z.K.q.3 U G.P.P.L.9.x z l d @ @ E.E.E.E.E.E.E.E.E.E.E.E.E.E.E.E.",
"E.E.E.E.E.E.E.E.E.E.E.E.E.E.E.E.E.. & { >.o.| X.%.$.%.%.%.%.$.$.=.-.o.| @.H.P.P.P.M.i.D l a = = @ @ E.E.E.E.E.E.E.E.E.E.E.E.E.E.",
"E.E.E.E.E.E.E.E.E.E.E.E.E.E.E.E.E.& 4 ` =.%.=.%.&.%.%.%.%.&.&.&.%.%.%.%.-.C.P.P.P.N.f.4.l f : ; @ @ E.E.E.E.E.E.E.E.E.E.E.E.E.E.",
"E.E.E.E.E.E.E.E.E.E.E.E.E.E.E.+ 1 ~ ^ %.<.<.Q <.<.<.<.<.<.<.<.<.>.%.*.[  .h.k.S.P.P.J.9.k k k f # @ E.E.E.E.E.E.E.E.E.E.E.E.E.E.",
"E.E.E.E.E.E.E.E.E.E.E.E.E.E.@ + 1 ) [ >.Q Q 2.Q 2.2.Q 2.2.2.Q <.>.%...] ] ' O.F.P.P.Y.w.k l l h # @ E.E.E.E.E.E.E.E.E.E.E.E.E.E.",
"E.E.E.E.E.E.E.E.E.E.E.E.E.E.@ + 8 h.x.c.c.3.$.$.$.$.$.$.$.$.$.$..... .] +.z.v.G.P.P.U.w.k l l k * $ @ @ E.E.E.E.E.E.E.E.E.E.E.E.",
"E.E.E.E.E.E.E.E.E.E.E.E.E.E.E.. 5 A.P.P.I.l.' ' ' ' ] [ ] ] ] ] ] ] ] ] @.F.U.P.P.U.T.e.k l l l : = @ @ @ E.E.E.E.E.E.E.E.E.E.E.",
"E.E.E.E.E.E.E.E.E.E.E.E.E.O n S 7.S.P.P.P.C.l.l.l.l.l.l.l.l.l.l.l.l.l.l.n.J.P.P.L.s.t.A k l l l f a # @ @ E.E.E.E.E.E.E.E.E.E.E.",
"E.E.E.E.E.E.E.E.E.E.E.E.@ O S S.P.P.P.P.P.P.P.P.P.U.U.P.P.U.P.P.P.P.P.U.Y.P.P.P.L.6.f l l l l l l k * @ E.E.E.E.E.E.E.E.E.E.E.E.",
"E.E.E.E.E.E.E.E.E.E.E.E.@ O S J.I.P.P.P.P.P.P.P.P.P.P.P.P.P.P.P.P.P.P.P.P.P.P.L.S.7.k l l l l l l k * # @ @ E.E.E.E.E.E.E.E.E.E.",
"E.E.E.E.E.E.E.E.E.E.@ @ @ O S P.P.P.P.P.P.P.P.P.P.P.P.P.P.P.P.P.P.P.P.P.P.P.L.f.f.5.k l l l l l l k ; = % @ @ E.E.E.E.E.E.E.E.E.",
"E.E.E.E.E.E.E.E.E.E.@ @ @ O Z S.G.P.P.P.P.P.P.P.P.P.P.P.P.P.P.P.P.P.P.P.P.P.G.a.i.D l l l l l l l k > > * # # E.E.E.E.E.E.E.E.E.",
"E.E.E.E.E.E.E.E.E.E.@ @ @ O j p.b.S.P.P.P.P.P.P.P.P.P.P.P.P.P.P.P.P.P.P.P.T.A.V c x l l l l l l l l k k k k ; @ @ E.E.E.E.E.E.E.",
"E.E.E.E.E.E.E.E.E.E.@ @ @ @ g y.p.D.S.L.L.L.L.L.L.J.L.J.L.L.L.S.L.L.S.G.S.S.N.b l l l l l l l l l l l l l l a @ @ E.E.E.E.E.E.E.",
"E.E.E.E.E.E.E.E.@ @ % ; # @ = z V p.f.f.f.f.d.d.f.f.d.d.f.d.f.f.f.f.f.f.f.f.p.c l l l l l l l l l l l l z l f a : @ @ E.E.E.E.E.",
"E.E.E.E.E.E.E.E.@ @ % ; % @ * h b u.g.d.d.d.d.d.d.d.d.d.d.d.d.d.d.d.a.d.d.d.i.c l l l l l l l l l l l l l l l l a @ @ E.E.E.E.E.",
"E.E.E.E.E.E.E.@ % % * ; % @ * k l 4.7.p.a.d.d.d.a.d.a.d.d.d.d.d.d.d.d.d.p.6.D z l l l l l l l l l l l z l l l l a # @ E.E.E.E.E.",
"E.E.E.E.E.E.@ # ; ; ; ; % @ * k l k z i.d.d.d.d.d.d.d.d.d.d.d.d.d.d.d.d.i.c h l l l l l l l l l l l l l l l l l a # @ E.E.E.E.E.",
"E.E.E.E.E.E.@ @ = ; ; ; $ @ * k l l l 4.4.4.7.4.5.4.4.7.4.4.6.4.6.4.5.5.4.l l l l l l l l l l l l l l l l l l l a @ @ E.E.E.E.E.",
"E.E.E.E.E.E.@ @ = ; ; ; % @ * k l l l l k l k l k l k k k l k k k k l k l l l l l l l l l l l l l l l l l l l l a # @ E.E.E.E.E.",
"E.E.E.E.E.E.@ @ = - ; ; # @ * k l l l l l l l l l l l l l l l l l l l l l l l l l l l l l l h h l l l l l l l l a @ @ E.E.E.E.E.",
"E.E.E.E.E.E.E.E.@ # @ @ @ @ * k l l l l l l l l l l l l l l l l l l l l l l l l l l l l l f : a l l l l l l > # @ E.E.E.E.E.E.E.",
"E.E.E.E.E.E.E.E.@ @ @ @ @ @ = k l l l l l l l l l l l l l l l l l l l l l l l l l l l z l a ; : k l l l l l : @ @ E.E.E.E.E.E.E.",
"E.E.E.E.E.E.E.E.E.E.E.E.@ @ * k l l l l l l l l l l l l l l l l l l l l l l l l l l l l l d ; : l l l l l l : @ @ E.E.E.E.E.E.E.",
"E.E.E.E.E.E.E.E.E.E.E.E.E.@ * g l l l l l l l l l l l l l l l z l l l l l l l l l l l l l f : : g k k l k l ; @ @ E.E.E.E.E.E.E.",
"E.E.E.E.E.E.E.E.E.E.E.E.@ @ # ; a l l l l l l l l l l l l l l l l l l l l l l l l l l l l l l f = % * * * * $ E.E.E.E.E.E.E.E.E.",
"E.E.E.E.E.E.E.E.E.E.E.E.@ @ @ ; : l l l l z l l l l l l l l l l l l l z l l l l l l l l l l l k # @ @ @ + @ + E.E.E.E.E.E.E.E.E.",
"E.E.E.E.E.E.E.E.E.E.E.E.E.@ @ $ = k l l l l l l l l l z l l l l l l l l l l l l l l l l l l l h # @ @ E.@ @ E.E.E.E.E.E.E.E.E.E.",
"E.E.E.E.E.E.E.E.E.E.E.E.E.E.E.+ # h l l l l l l l l l l l l l l l l l l l l l l l l l l l l l l # @ E.E.E.E.E.E.E.E.E.E.E.E.E.E.",
"E.E.E.E.E.E.E.E.E.E.E.E.E.E.< o < 5 a k l l l l l l l l l l l l l l l l l l l l l l l l l l l h # @ E.E.E.E.E.E.E.E.E.E.E.E.E.E.",
"E.E.E.E.E.E.E.E.E.E.E.E.E.E.E.q 9 # + a l l l l l l l l l l l l l l l k l l l l l l l l k l l g # @ E.E.E.E.E.E.E.E.E.E.E.E.E.E.",
"E.E.E.E.E.E.E.E.E.E.E.9 9 E.9 r w 2 2 d l l l l l l l l l l l l l l v u n u y y y y y y n u y y , < E.E.E.E.E.E.E.E.E.E.E.E.E.E.",
"E.E.E.E.E.E.E.E.E.E.9 9 9 9 w ! ^ ^ ! e : a l l l l l l l l l l l l N / ^ ^ ( E W W W W W W E Y t 0 E.E.E.E.E.E.E.E.E.E.E.E.E.E.",
"E.E.E.E.E.E.E.E.E.E.9 9 q w i '  .[ _ u 5 d k k l l l l l l l l z x I [ [ ] +.>.2.,.,.<.<.Q <.T r 9 E.E.E.E.E.E.E.E.E.E.E.E.E.E.",
"E.E.E.E.E.E.E.E.E.E.9 9 G E R ,.>.[ ] ^ ^ N ; f l l l l l l l k B ) _ ] ] ] [ [  . . . .[ *.2.T r 9 E.E.E.E.E.E.E.E.E.E.E.E.E.E.",
"E.E.E.E.E.E.E.E.E.E.9 9 K <.<.<.1.[ [ ] [ p ; d l k k k k k k h I [ ] [ ] ] [ ] [ [ [ } [ #.<.T r 9 E.E.E.E.E.E.E.E.E.E.E.E.E.E.",
"E.E.E.E.E.E.E.E.E.E.E.E.p K J J J J J H H u 2 , = = = % = * * * u J J J J J J J H J J H J J J H w E.E.E.E.E.E.E.E.E.E.E.E.E.E.E.",
"E.E.E.E.E.E.E.E.E.E.E.E.9 9 9 9 9 9 9 9 9 9 9 o O @ @ @ @ @ @ + < 9 9 9 9 9 9 9 9 9 9 9 9 0 9 9 E.E.E.E.E.E.E.E.E.E.E.E.E.E.E.E.",
"E.E.E.E.E.E.E.E.E.E.E.E.E.9 9 9 9 9 9 9 9 9 9 o @ @ @ @ @ @ @ @ o 9 9 q 9 9 9 9 9 9 9 9 9 9 9 E.E.E.E.E.E.E.E.E.E.E.E.E.E.E.E.E.",
"E.E.E.E.E.E.E.E.E.E.E.E.E.E.E.E.E.E.E.E.E.E.E.E.E.E.E.E.E.E.E.E.E.E.E.E.E.E.E.E.E.E.E.E.E.E.E.E.E.E.E.E.E.E.E.E.E.E.E.E.E.E.E.E.",
"E.E.E.E.E.E.E.E.E.E.E.E.E.E.E.E.E.E.E.E.E.E.E.E.E.E.E.E.E.E.E.E.E.E.E.E.E.E.E.E.E.E.E.E.E.E.E.E.E.E.E.E.E.E.E.E.E.E.E.E.E.E.E.E.",
"E.E.E.E.E.E.E.E.E.E.E.E.E.E.E.E.E.E.E.E.E.E.E.E.E.E.E.E.E.E.E.E.E.E.E.E.E.E.E.E.E.E.E.E.E.E.E.E.E.E.E.E.E.E.E.E.E.E.E.E.E.E.E.E.",
"E.E.E.E.E.E.E.E.E.E.E.E.E.E.                                                                      E.E.E.E.E.E.E.E.E.E.E.E.E.E.E.",
"E.E.E.E.E.E.E.E.E.E.E.E.E.                                                                          E.E.E.E.E.E.E.E.E.E.E.E.E.E.",
"E.E.E.E.E.E.E.E.E.E.E.E.                                                                            E.E.E.E.E.E.E.E.E.E.E.E.E.E."
};
