/* XPM */
static char *result[] = {
/* columns rows colors chars-per-pixel */
"64 64 178 2 ",
"   c #010100",
".  c #0B0805",
"X  c #0B0F11",
"o  c #04141F",
"O  c #141512",
"+  c #2D200F",
"@  c #3F2D15",
"#  c #061621",
"$  c #091924",
"%  c #0C1D29",
"&  c #081722",
"*  c #101C23",
"=  c #0E212C",
"-  c #11232E",
";  c #172126",
":  c #122532",
">  c #152936",
",  c #1B2A34",
"<  c #172C39",
"1  c #192E3C",
"2  c #1B313F",
"3  c #382E20",
"4  c #222E37",
"5  c #21333F",
"6  c #422F16",
"7  c #463117",
"8  c #44321A",
"9  c #4B3519",
"0  c #543D1D",
"q  c #583E1F",
"w  c #423521",
"e  c #523D20",
"r  c #5C431E",
"t  c #54401F",
"y  c #49453D",
"u  c #524533",
"i  c #735726",
"p  c #655338",
"a  c #684C27",
"s  c #7F6727",
"d  c #1E3544",
"f  c #213745",
"g  c #213847",
"h  c #233B4B",
"j  c #293F4C",
"k  c #2A3A43",
"l  c #263F50",
"z  c #2C424F",
"x  c #264152",
"c  c #2A4455",
"v  c #2F485A",
"b  c #334954",
"n  c #3B4C55",
"m  c #354D5D",
"M  c #384F5F",
"N  c #3E5053",
"B  c #39505F",
"V  c #38484F",
"C  c #384F60",
"Z  c #3E5564",
"A  c #4B4C47",
"S  c #4F5250",
"D  c #515152",
"F  c #524D46",
"G  c #7A6640",
"H  c #7D774F",
"J  c #756A53",
"K  c #465B68",
"L  c #455662",
"P  c #4C606D",
"I  c #5D666C",
"U  c #566875",
"Y  c #646C71",
"T  c #67767F",
"R  c #6B777F",
"E  c #96772D",
"W  c #8B6736",
"Q  c #8E693A",
"!  c #836838",
"~  c #966D34",
"^  c #826F4E",
"/  c #8A7451",
"(  c #837564",
")  c #9D822D",
"_  c #AA8934",
"`  c #BC953F",
"'  c #A6882F",
"]  c #C29E3B",
"[  c #D4AE3E",
"{  c #DCB63E",
"}  c #DEB83E",
"|  c #C7A537",
" . c #E1BB3F",
".. c #F2CE3D",
"X. c #F4D13E",
"o. c #8F844B",
"O. c #B68644",
"+. c #C78F48",
"@. c #C6924E",
"#. c #CA924A",
"$. c #CE9F47",
"%. c #D6994D",
"&. c #DA9D4E",
"*. c #D59749",
"=. c #DB9D50",
"-. c #C7985C",
";. c #CDA14A",
":. c #D6AA42",
">. c #DEAB49",
",. c #D8A94A",
"<. c #D8B845",
"1. c #DAB745",
"2. c #D7A15E",
"3. c #DEAE5B",
"4. c #D9A35D",
"5. c #DFB05B",
"6. c #E5B547",
"7. c #E6B945",
"8. c #E8BC45",
"9. c #E6B84A",
"0. c #E5BC56",
"q. c #E6BE5D",
"w. c #E1AC47",
"e. c #DAAE73",
"r. c #DEB472",
"t. c #DCAF6C",
"y. c #EDC443",
"u. c #F3CE41",
"i. c #F4D140",
"p. c #FAD642",
"a. c #697780",
"s. c #6E7B84",
"d. c #727E87",
"f. c #748189",
"g. c #79838A",
"h. c #7C8B94",
"j. c #86898A",
"k. c #858788",
"l. c #858D93",
"z. c #86939C",
"x. c #89969E",
"c. c #969C9F",
"v. c #909293",
"b. c #969DA1",
"n. c #9DA4A8",
"m. c #A4A7A9",
"M. c #A6A9AA",
"N. c #AAACAD",
"B. c #A0A3A6",
"V. c #A3ABB0",
"C. c #B3B3B3",
"Z. c #BBBBBB",
"A. c #DDBF99",
"S. c #DDBE96",
"D. c #C1BCB0",
"F. c #E3C997",
"G. c #E0C29B",
"H. c #E9D595",
"J. c #EBD68A",
"K. c #DACCAD",
"L. c #E1D2BF",
"P. c #CCCCCC",
"I. c #C2C3C5",
"U. c #D2D0C6",
"Y. c #CED0D1",
"T. c #D1D3D4",
"R. c #DBDCDC",
"E. c #D4D6D8",
"W. c #E3DDD5",
"Q. c #E4D9C5",
"!. c #E5E0D3",
"~. c #DFDFE0",
"^. c #DFE0E0",
"/. c #E4E4E4",
"(. c #E8E7E7",
"). c #E4E6E9",
"_. c #E9E9E9",
"`. c None",
/* pixels */
"`.`.`.`.`.`.`.`.`.`.`.`.`.`.`.`.`.`.`.`.`.`.`.`.`.`.`.`.`.`.`.`.`.`.`.`.`.`.`.`.`.`.`.`.`.`.`.`.`.`.`.`.`.`.`.`.`.`.`.`.`.`.`.`.",
"`.`.`.`.`.`.`.`.`.`.`.`.`.`.`.`.`.`.`.`.`.`.`.`.`.`.`.`.`.`.`.`.`.`.`.`.`.`.`.`.`.`.`.`.`.`.`.`.`.`.`.`.`.`.`.`.`.`.`.`.`.`.`.`.",
"`.`.`.`.`.`.`.`.`.`.`.`.`.`.`.`.`.`.`.`.`.`.`.`.`.`.`.`.`.`.`.`.`.`.`.`.`.`.`.`.`.`.`.`.`.`.`.`.`.`.`.`.`.`.`.`.`.`.`.`.`.`.`.`.",
"`.`.`.`.`.`.`.`.`.`.`.`.`.`.`.`.`.`.`.`.`.`.`.`.`.`.`.`.`.`.`.`.`.`.`.`.`.`.`.`.`.`.`.`.`.`.`.`.`.`.`.`.`.`.`.`.`.`.`.`.`.`.`.`.",
"`.`.`.`.`.`.`.`.`.`.`.`.`.`.`.`.`.`.`.`.`.`.`.`.`.`.`.`.`.`.`.`.`.`.`.`.`.`.`.`.`.`.`.`.`.`.`.`.`.`.`.`.`.`.`.`.`.`.`.`.`.`.`.`.",
"`.`.`.`.`.`.`.`.`.`.`.`.`.`.`.`.`.`.`.`.`.`.`.`.`.`.`.`.`.`.`.`.`.`.`.`.`.`.`.`.`.`.`.`.`.`.`.`.`.`.`.`.`.`.`.`.`.`.`.`.`.`.`.`.",
"`.`.`.`.`.`.`.`.`.`.`.`.`.`.`.`.`.`.`.`.`.`.`.`.`.`.`.`.`.`.`.`.`.`.`.`.`.`.`.`.`.`.`.`.`.`.`.`.`.`.`.`.`.`.`.`.`.`.`.`.`.`.`.`.",
"`.`.`.`.`.`.`.`.`.`.`.`.`.`.`.`.`.`.`.`.`.`.`.`.`.`.`.`.`.`.`.`.`.`.`.`.`.`.`.`.`.`.`.`.`.`.`.`.`.`.`.`.`.`.`.`.`.`.`.`.`.`.`.`.",
"`.`.`.`.`.`.`.`.`.`.`.`.`.`.`.`.`.`.`.`.`.`.`.`.`.`.`.`.`.`.`.`.`.`.`.`.`.`.`.`.`.`.`.`.`.`.`.`.`.`.`.`.`.`.`.`.`.`.`.`.`.`.`.`.",
"`.`.`.`.`.`.`.`.`.`.`.`.`.`.`.`.`.`.`.`.`.`.`.`.`.`.`.`.`.`.`.`.`.`.`.`.`.`.`.`.`.`.`.`.`.`.`.`.`.`.`.`.`.`.`.`.`.`.`.`.`.`.`.`.",
"`.`.`.`.`.`.`.`.`.`.`.`.`.`.`.`.`.`.`.`.`.`.`.`.`.`.`.`.`.`.`.`.`.`.`.`.`.`.`.`.`.`.`.`.`.`.`.`.`.`.`.`.`.`.`.`.`.`.`.`.`.`.`.`.",
"`.`.`.`.`.`.`.`.`.`.`.`.`.`.`.`.`.`.`.`.`.`.`.`.`.`.`.`.`.`.`.`.`.`.`.`.`.`.`.`.`.`.`.`.`.`.`.`.`.`.`.`.`.`.`.`.`.`.`.`.`.`.`.`.",
"`.`.`.`.`.`.`.`.`.`.`.`.`.`.`.`.`.`.`.`.`.`.`.`.`.`.`.`.`.`.`.`.`.`.`.`.`.`.`.`.`.`.`.`.`.`.`.`.`.`.`.`.`.`.`.`.`.`.`.`.`.`.`.`.",
"`.`.`.`.`.`.`.`.`.`.`.`.`.`.`.`.`.`.`.`.`.`.`.`.`.`.`.`.`.`.`.`.`.`.`.`.`.`.`.`.`.`.`.`.`.`.`.`.`.`.`.`.`.`.`.`.`.`.`.`.`.`.`.`.",
"`.`.`.`.`.`.`.`.`.`.`.`.`.`.`.`.`.`.`.`.`.`.`.`.`.`.`.`.`.`.`.`.`.`.`.`.`.`.`.`.`.`.`.`.`.`.`.`.`.`.`.`.`.`.`.`.`.`.`.`.`.`.`.`.",
"`.`.`.`.`.`.`.`.`.`.`.`.`.`.`.`.`.`.`.`.`.`.`.`.`.`.`.`.`.`.$ $ $ $ $ $ $ $ `.`.`.`.`.`.`.`.`.`.`.`.`.`.`.`.`.`.`.`.`.`.`.`.`.`.",
"`.`.`.`.`.`.`.`.`.`.`.`.`.`.`.`.`.`.`.`.`.`.`.`.`.`.`.`.`.$ & & $ $ $ $ $ $ $ `.`.`.`.`.`.`.`.`.`.`.`.`.`.`.`.`.`.`.`.`.`.`.`.`.",
"`.`.`.`.`.`.`.`.`.`.`.`.`.`.`.`.`.`.`.`.`.`.`.`.`.`.$ $ `.= : : : : : : - $ $ `.`.`.`.`.`.`.`.`.`.`.`.`.`.`.`.`.`.`.`.`.`.`.`.`.",
"`.`.`.`.`.`.`.`.`.`.`.`.`.`.`.`.`.`.`.`.`.`.`.`.`.$ $ $ & : j c x c x x f > - $ $ `.`.`.`.`.`.`.`.`.`.`.`.`.`.`.`.`.`.`.`.`.`.`.",
"`.`.`.`.`.`.`.`.`.`.`.`.`.`.`.`.`.`.`.`.`.`.`.`.`.% % % % > c c c c c c h 1 : % % `.`.`.`.`.`.`.`.`.`.`.`.`.`.`.`.`.`.`.`.`.`.`.",
"`.`.`.`.`.`.`.`.`.`.`.`.`.`.`.`.`.`.`.`.`.`.`.$ $ d l l x x c c c c c c x c l x f $ $ `.`.`.`.`.`.`.`.`.`.`.`.`.`.`.`.`.`.`.`.`.",
"`.`.`.`.`.`.`.`.`.`.`.`.`.`.`.`.`.`.`.`.`.`.`.$ % g c c c c c c c c c c v c c c f $ $ `.`.`.`.`.`.`.`.`.`.`.`.`.`.`.`.`.`.`.`.`.",
"`.`.`.`.`.`.`.`.`.`.`.`.`.`.`.`.`.`.`.`.`.$ % d d x c c c c c c c c c c c c c c x g d % $ `.`.`.`.`.`.`.`.`.`.`.`.`.`.`.`.`.`.`.",
"`.`.`.`.`.`.`.`.`.`.`.`.`.`.`.`.`.`.`.`.`.$ % j v c c c c c c c c c c c c c c c c c l % $ `.`.`.`.`.`.`.`.`.`.`.`.`.`.`.`.`.`.`.",
"`.`.`.`.`.`.`.`.`.`.`.`.`.`.`.`.`.`.`.$ : d d c c c c c c c c c c c c c c c c c c c c g f - $ `.`.`.`.`.`.`.`.`.`.`.`.`.`.`.`.`.",
"`.`.`.`.`.`.`.`.`.`.`.`.`.`.`.`.`.`.$ $ : h l c l c c c c c c x x c l l c l c c c c c c x : $ $ `.`.`.`.`.`.`.`.`.`.`.`.`.`.`.`.",
"`.`.`.`.`.`.`.`.`.`.`.`.`.`.`.`.`.`.$ & f h.z.d.a.C c c c M T d.z.x.z.z.x.x.U c c c c c x : $ $ `.`.`.`.`.`.`.`.`.`.`.`.`.`.`.`.",
"`.`.`.`.`.`.`.`.`.`.`.`.`.`.`.`.`.`.`.# j E.).Z.C.a.l c l T C.Z.!._._._.)._.z.c c c c c x : & `.`.`.`.`.`.`.`.`.`.`.`.`.`.`.`.`.",
"`.`.`.`.`.`.`.`.`.`.`.`.`.`.`.`.`.& k I d.R.~.D.Z.b.d.f.d.b.Z.Z.~./././.)._.V.Z M c x c c : $ $ $ `.`.`.`.`.`.`.`.`.`.`.`.`.`.`.",
"`.`.`.`.`.`.`.`.`.`.`.`.`.`.`.`.$ & I R./././.R.~.~./././.^.~.~././.(./././.P.m.c.M c c x 1 > = $ $ `.`.`.`.`.`.`.`.`.`.`.`.`.`.",
"`.`.`.`.`.`.`.`.`.`.`.`.`.`.`.`.$ # Y ^./.Y.T.W.W.W.!.!.W.W.W.W././.R.Y.W./.P.Z.N.K M c x d 1 : $ $ `.`.`.`.`.`.`.`.`.`.`.`.`.`.",
"`.`.`.`.`.`.$ $ $ $ `.`.`.`.`.`.`.& Y /.P.S F -.2.3.0.0.0.5.2.t.W.R.Y S I.(.~.R.Y.N.c.M x x c 1 & `.`.`.`.`.`.`.< < - $ $ `.`.`.",
"`.`.`.`.`.$ $ $ % $ `.`.`.`.`.`.% $ Y !.Z.y u #.&.w.7.7.7.>.%.4.Q.U.S A D./././.^.I.M.C c c c 1 $ $ `.`.`.`.`.`.< 2 - & $ `.`.`.",
"`.`.`.`.`.$ $ = > : $ $ $ $ $ $ = 1 J q.9.;.;.>.6.6.7.7.7.6.6.9.0.0.;.$.K.)./././.!.I.Z c c c x d d < < < < < 2 h x < & $ `.`.`.",
"`.`.`.`.`.$ $ = < > $ $ $ $ $ $ = > p 8.7.8.7.7.7.7.8.7.7.7.6.8.6.7.8.8.F.)././././.T.Z c c c c c g < < < < > 2 x c 2 & $ `.`.`.",
"`.`.`.`.`.$ $ = < < : = - - % $ u W ` y.y.y.y.y.y.y.y.y.y.y.y.y.6.6.>.>.r.A.L.)./.).T.Z c c c c c x d g g g d h c c 2 & $ `.`.`.",
"`.`.`.`.`.$ $ : 1 < < < < 1 - $ ! =.>...u.X.i.i.X.X.X.i.u...i...8.9.&.%.%.*.S././.).T.Z c c c c c c v c c c c c c c 2 & $ `.`.`.",
"`.`.`.`.`.`.$ % = : < < < < - $ ( G.F.H.J.0.6.6.6.6.6.6.6.6.9.6.>.,.&.%.e.A.L././.).T.Z c c c c c c c c c c c c c c 1 & $ `.`.`.",
"`.`.`.`.`.`.`.$ $ $ > < < < - & j._./.).W.=.%.%.%.%.%.%.%.%.%.%.%.%.%.%.F._././././.T.Z c c c c c c c c c c v c c v 2 & $ `.`.`.",
"`.`.`.`.`.`.`.`.$ % > < < < - & j._././.W.t.3.3.3.3.3.3.5.3.5.5.3.3.5.5.K./././././.T.Z c c c c c c c c c c c c c c 2 & $ `.`.`.",
"`.`.`.`.`.`.`.$ $ % > > < 1 = & j._./././.W.W.!.!.!.!.!.!.!.!.!.!.!.!.!././././././.T.L c c c c c c c c c c c c c c 2 & $ `.`.`.",
"`.`.`.`.`.`.`.`.$ $ > > > < 5 4 v.(././././././././././././././././././././././././.T.Z c c c c x x x x x x x x x x 1 $ $ `.`.`.",
"`.`.`.`.`.`.`.`.`.$ % $ $ , M.Y.R./././././././././././././././././././././././././.T.Z c c c h 1 1 1 1 2 1 = % % % % `.`.`.`.`.",
"`.`.`.`.`.`.`.`.`.`.$ $ & , Z././././././././././././././././././././././././././.).T.Z c c c d 1 1 1 1 , : $ $ $ $ & `.`.`.`.`.",
"`.`.`.`.`.`.`.`.`.`.`.$ $ - z.Z.R././.)././././././././././././././././././././././.T.Z c c c c c x c f % % & `.$ $ `.`.`.`.`.`.",
"`.`.`.`.`.`.`.`.`.`.`.`.$ % a.C.P.)./.!./././././././././././././././././././././._.T.Z c c c c c c x f $ $ `.`.`.`.`.`.`.`.`.`.",
"`.`.`.`.`.`.`.`.`.`.`.`.$ $ S s.n.P.R./././././././././././././././././././././.^.Y.Z.Z c c c c c c c f % & `.`.`.`.`.`.`.`.`.`.",
"`.`.`.`.`.`.`.`.`.`.`.`.$ % d x d.C.P./.(././././././.(././././././.)./././././.^.Z.m.B c c c c c c c f $ $ `.`.`.`.`.`.`.`.`.`.",
"`.`.`.`.`.`.`.`.`.`.`.`.$ % d c K d.m.P.P.P.P.P.P.P.P.P.P.P.P.P.P.P.P.P.P.P.P.Y.I.g.a.v c c c c c c c g % $ `.`.`.`.`.`.`.`.`.`.",
"`.`.`.`.`.`.`.`.`.`.`.`.$ $ d c c x s.C.C.C.C.C.C.C.N.C.C.C.C.C.C.C.C.C.C.C.C.C.n.C c c c c c c c c c d $ $ `.`.`.`.`.`.`.`.`.`.",
"`.`.`.`.`.`.`.`.`.`.`.`.& % d c c x U B.m.m.N.C.C.C.C.C.C.C.C.C.C.C.C.C.N.m.m.m.l.v c c c c c c c c c g % $ `.`.`.`.`.`.`.`.`.`.",
"`.`.`.`.`.`.`.`.`.`.`.`.$ % g c c c x M M M K m.C.C.C.C.C.C.C.C.C.C.C.C.g.m B B v c c c c c c c c c v d $ % `.`.`.`.`.`.`.`.`.`.",
"`.`.`.`.`.`.`.`.`.`.`.`.$ $ d x c c c c c c C b.N.m.N.m.m.m.m.m.m.m.m.m.T x b N N N N N N N N b c c x 2 $ o `.`.`.`.`.`.`.`.`.`.",
"`.`.`.`.`.`.`.`.`.`.`.`.`.`.% % 2 c c c c c c C M M B B B m B B B B B B v x H <.<.<.<.<.<.<.<.H c d = = `.`.`.`.`.`.`.`.`.`.`.`.",
"`.`.`.`.`.`.`.`.`.`.`.`.`.`.$ o 4 j c c c c v l x c x c x c c c c c c c c x o.i.i.i.i.i.i.i.p.o.n k $ $ `.`.`.`.`.`.`.`.`.`.`.`.",
"`.`.`.`.`.`.`.`.`.`.9 9 9 9 a ~ W Q p j c c c c c c c c c c c c c c c z p Q ` i.i.i.i.i.i.i.i.<.,.! = o `.`.`.`.`.`.`.`.`.`.`.`.",
"`.`.`.`.`.`.`.`.`.9 9 9 9 7 ~ &.%.=.Q l l v c c c c c c c c c c c c c j Q =.9.X.u.u.X.X.u.X.i.p.X.) $ $ `.`.`.`.`.`.`.`.`.`.`.`.",
"`.`.`.`.`.`.`.`.`.9 9 0 E ' :.6.>.%.O.^ J b c l c c c c c c c c c b J ^ O.8.y.i.X.u.u.u.u.i.i.| ) ! `.`.`.`.`.`.`.`.`.`.`.`.`.`.",
"`.`.`.`.`.`.`.`.`.9 9 r  .p.i.X.6.%.=.&.@.n l v c c c c c c c c c b @.=.y.i.i.i.i.i.i.i.i.X.p.E 7 `.`.`.`.`.`.`.`.`.`.`.`.`.`.`.",
"`.`.`.`.`.`.`.`.`.`.9 r E ' y.i.8.>.,.%.@./ J n c c c c c v c b J / #.,.y.i.i.i.i.i.i.i.u.] ) i 9 `.`.`.`.`.`.`.`.`.`.`.`.`.`.`.",
"`.`.`.`.`.`.`.`.`.`.`.`.8 q :.X.u.u.y.%.&.&.+.y v c c c c c c n @.&.%.&.y.i.u.i.X.i.i.i.u.~ 7 9 `.`.`.`.`.`.`.`.`.`.`.`.`.`.`.`.",
"`.`.`.`.`.`.`.`.`.`.`.. 6 9 _ } { { :.+.+.+.O.y x j l l l l l b O.#.#.+.:.{ { { { } { { [ i 7 + `.`.  `.`.`.`.`.`.`.`.`.`.`.`.`.",
"`.`.`.`.`.`.`.`.`.`.    . . w r r r r r r r 0 ; % % % % % % % ; e r r r r r r r r r r r 0 O .           `.`.`.`.`.`.`.`.`.`.`.`.",
"`.`.`.`.`.`.`.`.`.        . 3 9 9 9 9 9 9 9 8 % $ $ $ $ $ $ $ $ 8 9 9 9 9 9 9 9 9 9 9 8 8 X             `.`.`.`.`.`.`.`.`.`.`.`."
};
