/* XPM */
static char *result[] = {
/* columns rows colors chars-per-pixel */
"64 64 25 1 ",
"  c black",
". c #070707",
"X c gray10",
"o c #353535",
"O c #383858",
"+ c #485080",
"@ c #5668A6",
"# c #6078C0",
"$ c #808080",
"% c gray51",
"& c #84BAE4",
"* c #90D0F0",
"= c #E0E8F0",
"- c #ECEEF0",
"; c gray94",
": c #F1F1F1",
"> c gray95",
", c #F3F3F3",
"< c #F4F4F4",
"1 c gray96",
"2 c #F6F6F6",
"3 c gray97",
"4 c #F8F8F8",
"5 c #F9F9F9",
"6 c gray98",
/* pixels */
"::::::::::::::::::::::::::::::::::::::::::::::::,,11<<<<<<11::::",
"::::::::::::::::::::::::::::::::::::::::::::::::,,11<<<<<<11::::",
"::::::::::::::::::::::::::::++++++++++++::::::::::>>>>>>>>>>,,::",
"::::::::::::::::::::::::::::++++++++++++::::::::::>>>>>>>>>>,,::",
"::::::::::::::::::::::::::::++++++++++++::::::>>>>>>>>,,>>>>>>::",
"::::::::::::::::::::::::::::++++++++++++::::::>>>>>>>>,,>>>>>>::",
"::::::::::::::::::::++++++++;;;;;;;;;;;;++++::,,>>>>,,,,>>>>>>,,",
"::::::::::::::::::::++++++++;;;;;;;;;;;;++++::,,>>>>,,,,>>>>>>,,",
"::::::::::::::::::::++++++++;;;;;;;;;;;;++++::::::<<,,>>>>>>>>,,",
"::::::::::::::::::::++++++++;;;;;;;;;;;;++++::::::<<,,>>>>>>>>,,",
"::::::::::::::::++++====;;;;;;;;====;;;;;;;;++++::::::::::>>::,,",
"::::::::::::::::++++====;;;;;;;;====;;;;;;;;++++::::::::::>>::,,",
"::::::::::::::::++++====--;;;;--====;;;;;;;;++++::::::::>>::::<<",
"::::::::::::::::++++====--;;;;--====;;;;;;;;++++::::::::>>::::<<",
"::::::::::::++++****;;--========--;;############++++::::>>::>>22",
"::::::::::::++++****;;--========--;;############++++::::>>::>>22",
"::::::::::::++++****;;;;========;;;;############++++::::,,>>>>55",
"::::::::::::++++****;;;;========;;;;############++++::::,,>>>>55",
"::::::::::::++++********====****########********++++::::,,>>,,55",
"::::::::::::++++********====****########********++++::::,,>>,,55",
"::::::::::::++++********====****########********++++::::::>>>>33",
"::::::::::::++++********====****########********++++::::::>>>>33",
"::::::::++++====####********OOOOOOOO####************++++::>>>>11",
"::::::::++++====####********OOOOOOOO####************++++::>>>>11",
"::::::::++++====####********OOOOOOOO@@##************++++::>>>><<",
"::::::::++++====####********OOOOOOOO@@##************++++::>>>><<",
"::::::::++++****########OOOO######@@OOOO####****####++++::>>>><<",
"::::::::++++****########OOOO######@@OOOO####****####++++::>>>><<",
"::::::::++++****######@@OOOO########OOOO@@##**&&####++++::,,>><<",
"::::::::++++****######@@OOOO########OOOO@@##**&&####++++::,,>><<",
"::::    ************OOOO@@############@@OOOO####&&**++++::11<<33",
"::::    ************OOOO@@############@@OOOO####&&**++++::11<<33",
"::::    ************OOOO################OOOO####****++++::::5566",
"::::    ************OOOO################OOOO####****++++::::5566",
"::::    ####****####OOOO++++########OOOOOOOO############  XX4422",
"::::    ####****####OOOO++++########OOOOOOOO############  XX4422",
"::::    ####****####OOOO++++########OOOOOOOO############  oo22<<",
"::::    ####****####OOOO++++########OOOOOOOO############  oo22<<",
"::::    ########OOOO++++++++OOOO++++####OOOOOOOO########  ..33<<",
"::::    ########OOOO++++++++OOOO++++####OOOOOOOO########  ..33<<",
"::::    ########OOOO++++++++OOOO++++####OOOOOOOO########    55<<",
"::::    ########OOOO++++++++OOOO++++####OOOOOOOO########    55<<",
"::::    ####OOOOOOOO++++OOOO############++++OOOOOOOO####    33,,",
"::::    ####OOOOOOOO++++OOOO############++++OOOOOOOO####    33,,",
"::::    ####OOOOOOOO++++OOOO############++++OOOOOOOO####    11>>",
"::::    ####OOOOOOOO++++OOOO############++++OOOOOOOO####    11>>",
"::::$$$$    OOOOOOOOOOOOOOOO++++####++++OOOOOOOOOOOO    $$$$11>>",
"::::$$$$    OOOOOOOOOOOOOOOO++++####++++OOOOOOOOOOOO    $$$$11>>",
"::::$$$$    OOOOOOOOOOOOOOOO++++####++++OOOOOOOOOOOO    $$$$11>>",
"::::$$$$    OOOOOOOOOOOOOOOO++++####++++OOOOOOOOOOOO    $$$$11>>",
"::::::::$$$$        OOOOOOOOOOOOOOOOOOOOOOOO        $$$$$$$$22,,",
"::::::::$$$$        OOOOOOOOOOOOOOOOOOOOOOOO        $$$$$$$$22,,",
"::::,,::$$$$        OOOOOOOOOOOOOOOOOOOOOOOO        $$$$$$%%22<<",
"::::,,::$$$$        OOOOOOOOOOOOOOOOOOOOOOOO        $$$$$$%%22<<",
"::>>>>::::::$$$$$$$$                        $$$$$$$$$$$$::33<<<<",
"::>>>>::::::$$$$$$$$                        $$$$$$$$$$$$::33<<<<",
"::>>>>,,::::$$$$$$$$                        $$$$$$$$$$$$::::>>>>",
"::>>>>,,::::$$$$$$$$                        $$$$$$$$$$$$::::>>>>",
"::>>::>>::::::::::::$$$$$$$$$$$$$$$$$$$$$$$$$$$$::::::,,>>::>>,,",
"::>>::>>::::::::::::$$$$$$$$$$$$$$$$$$$$$$$$$$$$::::::,,>>::>>,,",
"::::::::::>>,,::::::$$$$$$$$$$$$$$$$$$$$$$$$$$$$::::::::::::>>,,",
"::::::::::>>,,::::::$$$$$$$$$$$$$$$$$$$$$$$$$$$$::::::::::::>>,,",
"::::::,,>>>>,,<<::::::::::::::::::::::::::::::::::::::::::::>><<",
"::::::,,>>>>,,<<::::::::::::::::::::::::::::::::::::::::::::>><<"
};
