/* XPM */
static char *result[] = {
/* columns rows colors chars-per-pixel */
"64 64 6 1 ",
"  c #C4C4D0",
". c #D8D8E4",
"X c #DFDFE6",
"o c #DFDFEA",
"O c #E8E8F0",
"+ c #F1F1F1",
/* pixels */
"++++++++OOOOOOOOOO++++++++++++++++++++++++++++OOOOOOOOOOOOOO++++",
"++++++++OOOOOOOOOO++++++++++++++++++++++++++++OOOOOOOOOOOOOO++++",
"++++++++OOOOOOOOOO++++++++++++++++++++++++++++OOOOOOOOOOOOOO++++",
"++++++++OOOOOOOOOO++++++++++++++++++++++++++++OOOOOOOOOOOOOO++++",
"++++++++++++++++++++++++++++++++++++++++++++++OOOOOOOOOOOOOO++++",
"++++++++++++++++++++++++++++++++++++++++++++++OOOOOOOOOOOOOO++++",
"++++++++++++++++++++++++++++++++++++++++++++++++++++++++++++++++",
"++++++++++++++++++++++++++++++++++++++++++++++++++++++++++++++++",
"++++++++++++++++++++++++++++++++++++++++++++++++++++++++++++++++",
"++++++++++++++++++++++++++++++++++++++++++++++++++++++++++++++++",
"++++++++++++++++++++OOOOOOOO++++++++++++++++++++++++++++++++++++",
"++++++++++++++++++++OOOOOOOO++++++++++++++++++++++++++++++++++++",
"++++++++++++++++++++OOOOOOOO++++++++++++++++++++++++++++++++++++",
"++++++++++++++++++++OOOOOOOO++++++++++++++++++++++++++++++++++++",
"++++++++++++++++    ooooOOOO++++++++++++++++++++++++++++++++++++",
"++++++++++++++++    ooooOOOO++++++++++++++++++++++++++++++++++++",
"++++++++++++++++    ..ooOOOO++++++++++++++++++++++++++++++++++++",
"++++++++++++++++    ..ooOOOO++++++++++++++++++++++++++++++++++++",
"++++++++    oooooo..    ++++        ++++++++++++++++++++++++++++",
"++++++++    oooooo..    ++++        ++++++++++++++++++++++++++++",
"++++++++    oooooooo    ++++        ++++++++++++++++++++++++++++",
"++++++++    oooooooo    ++++        ++++++++++++++++++++++++++++",
"++++            ++++    ++++    oooo++++++++++++++++++++++++++++",
"++++            ++++    ++++    oooo++++++++++++++++++++++++++++",
"++++            ++++    ++++    oooo++++++++++++++++++++++++++++",
"++++            ++++    ++++    oooo++++++++++++++++++++++++++++",
"OOOOoooooooo    ++++XXXX++++XXXX++++++++++++++++++++++++++++OOOO",
"OOOOoooooooo    ++++XXXX++++XXXX++++++++++++++++++++++++++++OOOO",
"OOOOoooooooo    ++++XXXX++++XXXX++++++++++++++++++++++++++++OOOO",
"OOOOoooooooo    ++++XXXX++++XXXX++++++++++++++++++++++++++++OOOO",
"OOOOOOOOOOOOXXXX++++++++++++++++++++OOOOOOOOOOOOOOOO++++++++OOOO",
"OOOOOOOOOOOOXXXX++++++++++++++++++++OOOOOOOOOOOOOOOO++++++++OOOO",
"OOOOOOOOOOOOXXXX++++++++++++++++++++OOOOOOOOOOOOOOOO++++++++OOOO",
"OOOOOOOOOOOOXXXX++++++++++++++++++++OOOOOOOOOOOOOOOO++++++++OOOO",
"++++OOOOOOOO++++++++++++++++++++        ++++        ++++++++++++",
"++++OOOOOOOO++++++++++++++++++++        ++++        ++++++++++++",
"++++OOOOOOOO++++++++++++++++++++        ++++        ++++++++++++",
"++++OOOOOOOO++++++++++++++++++++        ++++        ++++++++++++",
"++++++++++++++++++++++++++++++++        ++++    oooooooo    ++++",
"++++++++++++++++++++++++++++++++        ++++    oooooooo    ++++",
"++++++++++++++++++++++++++++++++        ++++    oooooooo    ++++",
"++++++++++++++++++++++++++++++++        ++++    oooooooo    ++++",
"++++++++++++++++++++OOOOOOOOOOOOoooo    ++++    ++++        OOOO",
"++++++++++++++++++++OOOOOOOOOOOOoooo    ++++    ++++        OOOO",
"++++++++++++++++++++OOOOOOOOOOOOoooo    ++++    ++++        OOOO",
"++++++++++++++++++++OOOOOOOOOOOOoooo    ++++    ++++        OOOO",
"++++++++++++++++++++OOOOOOOOOOOOOOOOXXXX++++XXXX++++    ooooOOOO",
"++++++++++++++++++++OOOOOOOOOOOOOOOOXXXX++++XXXX++++    ooooOOOO",
"++++++++++++++++++++OOOOOOOOOOOOOOOOXXXX++++XXXX++++    ooooOOOO",
"++++++++++++++++++++OOOOOOOOOOOOOOOOXXXX++++XXXX++++    ooooOOOO",
"++++++++++++++++++++++++++++++++++++++++++++++++++++XXXX++++++++",
"++++++++++++++++++++++++++++++++++++++++++++++++++++XXXX++++++++",
"++++++++++++++++++++++++++++++++++++++++++++++++++++XXXX++++++++",
"++++++++++++++++++++++++++++++++++++++++++++++++++++XXXX++++++++",
"++++++++++++++++++++++++++++++++++++OOOOOOOOOOOOOOOO++++++++++++",
"++++++++++++++++++++++++++++++++++++OOOOOOOOOOOOOOOO++++++++++++",
"++++++++++++++++++++++++++++++++++++OOOOOOOOOOOOOOOO++++++++++++",
"++++++++++++++++++++++++++++++++++++OOOOOOOOOOOOOOOO++++++++++++",
"++++++++++++++++++++++++++++++++++++OOOOOOOOOOOOOOOO++++++++++++",
"++++++++++++++++++++++++++++++++++++OOOOOOOOOOOOOOOO++++++++++++",
"++++++++++++++++++++++++++++++++++++OOOOOOOOOOOOOOOO++++++++++++",
"++++++++++++++++++++++++++++++++++++OOOOOOOOOOOOOOOO++++++++++++",
"OOOO++++++++++++++++++++++++++++++++++++++++++++++++++++++++++++",
"OOOO++++++++++++++++++++++++++++++++++++++++++++++++++++++++++++"
};
